<!DOCTYPE svg PUBLIC "-//W3C//DTD SVG 20010904//EN" "http://www.w3.org/TR/2001/REC-SVG-20010904/DTD/svg10.dtd">
<svg version="1.0" xmlns="http://www.w3.org/2000/svg" width="609px" height="216px" viewBox="0 0 6090 2160" preserveAspectRatio="xMidYMid meet">
<g id="layer101" fill="#6c148b" stroke="none">
 <path d="M3010 1831 c-13 -26 -13 -157 1 -182 8 -16 13 -18 25 -8 23 19 17 209 -7 209 -5 0 -13 -9 -19 -19z"/>
 <path d="M2654 1736 c-13 -33 72 -176 103 -176 24 0 10 49 -34 119 -40 64 -60 80 -69 57z"/>
 <path d="M3367 1732 c-25 -28 -88 -153 -81 -163 12 -20 34 -6 68 45 54 81 71 136 43 136 -8 0 -21 -8 -30 -18z"/>
 <path d="M3232 1449 c-5 -13 -13 -40 -16 -59 -4 -19 -10 -42 -12 -51 -4 -14 9 -17 91 -21 81 -4 101 -9 135 -32 49 -32 72 -73 49 -87 -8 -5 -30 -9 -50 -9 -89 0 -123 -97 -48 -135 15 -8 44 -15 65 -15 29 0 35 -3 30 -16 -3 -9 -6 -17 -6 -19 0 -2 -16 -13 -36 -26 -31 -19 -56 -23 -167 -28 l-131 -6 -13 -60 c-7 -33 -12 -66 -13 -74 0 -11 29 -13 158 -9 138 3 163 6 204 26 56 28 130 104 160 166 l22 46 185 0 c103 0 191 -4 197 -8 6 -4 14 -19 17 -33 10 -39 90 -123 156 -164 l59 -35 281 0 281 0 55 31 c71 40 125 95 155 158 l23 51 194 0 193 0 25 -50 c33 -66 87 -124 144 -158 44 -26 49 -26 258 -30 203 -4 213 -4 213 14 0 18 -9 19 -155 16 -90 -2 -162 1 -172 7 -16 8 -15 10 8 16 15 4 92 5 173 3 l146 -3 0 47 0 46 -193 4 c-192 3 -194 3 -235 31 -61 40 -57 47 30 62 42 7 68 36 68 76 0 36 -29 58 -89 68 -28 4 -54 11 -58 14 -13 14 17 57 58 84 42 28 44 28 231 31 l188 4 0 74 0 74 -158 0 c-87 0 -185 -5 -217 -11 -121 -22 -194 -80 -246 -195 -16 -34 -35 -64 -44 -68 -21 -8 -245 -6 -308 2 -45 6 -50 10 -61 43 -33 95 -116 179 -205 207 -47 14 -97 17 -311 17 -255 0 -255 0 -311 -26 -95 -45 -147 -104 -188 -211 l-11 -28 -190 0 c-174 0 -190 1 -190 18 -1 36 -41 104 -90 152 -61 60 -136 90 -242 97 -75 6 -78 5 -86 -18z m2488 -68 c0 -5 -15 -20 -32 -32 -18 -13 -50 -38 -71 -57 -22 -18 -41 -31 -45 -28 -10 11 33 60 82 94 50 33 66 39 66 23z m-1410 -6 c0 -2 -21 -19 -47 -37 -27 -17 -56 -42 -66 -55 -20 -25 -37 -30 -37 -10 0 14 64 78 95 95 20 11 55 16 55 7z m519 -85 c49 -28 87 -72 77 -89 -4 -6 -30 -11 -57 -11 -41 0 -54 -5 -74 -26 -55 -59 -18 -115 85 -126 60 -7 2 -66 -77 -79 -26 -4 -147 -8 -269 -8 -219 -1 -220 -1 -254 24 -61 45 -61 65 -1 65 47 0 91 37 91 75 0 14 -11 37 -25 50 -19 20 -34 25 -74 25 -27 0 -53 5 -57 11 -3 6 14 32 40 57 57 57 75 60 351 58 194 -1 201 -2 244 -26z m-1031 -197 c55 -14 -12 -23 -180 -23 -178 0 -231 6 -192 21 23 9 340 11 372 2z m1362 -3 c56 -5 22 -7 -130 -8 -135 -1 -200 2 -190 8 17 11 206 11 320 0z m-1600 -140 c0 -17 -43 -51 -105 -83 -54 -28 -71 -31 -167 -35 -116 -5 -173 3 -147 19 7 5 66 9 130 9 109 0 120 2 176 30 33 17 68 39 78 50 19 21 35 26 35 10z m1410 0 c0 -19 -54 -62 -110 -88 -50 -23 -68 -26 -231 -30 -97 -3 -203 -1 -235 3 -104 13 -31 24 173 24 229 1 276 9 345 62 58 43 58 43 58 29z"/>
 <path d="M0 1327 l0 -74 186 -5 185 -5 30 -29 c61 -58 59 -83 -6 -84 -42 0 -78 -21 -93 -53 -25 -51 27 -107 99 -107 65 0 6 -65 -72 -81 -24 -4 -108 -8 -186 -9 l-143 0 0 -76 0 -77 183 5 c170 4 187 6 239 30 68 31 129 90 163 158 l25 50 193 0 192 0 23 -49 c29 -65 116 -144 187 -170 51 -19 77 -21 311 -21 l256 0 61 33 c76 40 128 91 162 157 l25 50 194 0 193 0 19 -42 c24 -53 107 -138 160 -163 77 -37 297 -44 295 -10 -1 6 -37 11 -81 13 -104 4 -96 22 10 22 43 0 81 3 84 8 2 4 7 24 11 45 l7 37 -93 0 c-117 1 -176 14 -211 47 -36 35 -35 43 5 43 42 0 95 33 103 65 13 52 -39 95 -117 95 -49 0 -50 15 -4 63 44 45 97 57 259 57 l124 0 11 63 c6 35 11 69 11 75 0 9 -51 12 -186 12 l-186 0 -69 -46 c-72 -47 -120 -106 -143 -172 -12 -34 -16 -37 -62 -44 -68 -9 -307 -9 -319 0 -5 4 -22 32 -37 63 -35 75 -77 121 -148 164 l-58 35 -282 0 -283 0 -63 -35 c-87 -49 -164 -149 -164 -213 0 -22 -1 -22 -182 -22 -101 0 -187 4 -193 8 -5 4 -23 35 -39 69 -35 74 -93 134 -161 165 -45 21 -67 23 -237 26 l-188 4 0 -75z m2670 -16 c0 -5 -15 -20 -32 -32 -18 -13 -48 -36 -67 -51 -18 -16 -35 -27 -38 -24 -10 10 34 61 76 88 47 30 61 34 61 19z m-1428 -19 c-12 -9 -44 -34 -70 -55 -44 -35 -70 -35 -40 0 24 30 91 73 112 73 21 -1 21 -1 -2 -18z m513 -53 c40 -11 120 -82 110 -98 -2 -5 -30 -11 -62 -14 -65 -7 -93 -30 -93 -76 0 -41 21 -62 77 -75 28 -6 52 -15 54 -21 1 -5 -20 -23 -46 -40 l-48 -30 -248 0 -247 0 -37 30 c-21 17 -38 35 -39 40 0 6 18 13 41 16 55 7 83 33 83 76 0 51 -37 83 -94 83 -25 0 -47 4 -50 9 -6 10 35 68 61 86 10 7 30 15 43 18 54 10 456 7 495 -4z m389 -205 c31 -5 43 -10 34 -15 -16 -10 -321 -12 -369 -2 -33 7 -33 7 -9 14 32 9 283 11 344 3z m-1404 -14 c0 -6 -64 -10 -171 -10 -111 0 -168 3 -164 10 8 14 335 14 335 0z m-240 -165 c-13 -14 -49 -38 -79 -52 -52 -26 -66 -28 -220 -31 -119 -3 -162 -1 -157 7 5 7 46 11 114 11 167 1 224 12 295 59 65 44 85 46 47 6z m1430 27 c0 -12 -37 -44 -89 -78 l-45 -29 -230 -3 c-151 -2 -228 0 -221 6 6 6 101 12 216 14 190 4 208 6 249 27 25 13 57 34 73 47 29 25 47 30 47 16z"/>
 <path d="M2728 623 c-34 -40 -87 -149 -79 -162 15 -23 37 -6 75 57 42 69 57 122 34 122 -8 0 -22 -8 -30 -17z"/>
 <path d="M3290 620 c0 -44 78 -170 106 -170 24 0 16 32 -28 110 -43 75 -78 102 -78 60z"/>
 <path d="M3010 544 c-13 -34 -13 -140 0 -165 6 -10 17 -19 25 -19 12 0 15 16 15 74 0 122 -18 170 -40 110z"/>
 </g>

</svg>