<!DOCTYPE svg PUBLIC "-//W3C//DTD SVG 20010904//EN" "http://www.w3.org/TR/2001/REC-SVG-20010904/DTD/svg10.dtd">
<svg version="1.0" xmlns="http://www.w3.org/2000/svg" width="1200px" height="304px" viewBox="0 0 12000 3040" preserveAspectRatio="xMidYMid meet">
<g id="layer101" fill="#656461" stroke="none">
<path d="M6207 2223 c-9 -16 -27 -74 -41 -129 -31 -121 -32 -120 102 -128 209 -13 253 -26 349 -98 53 -40 80 -89 67 -121 -7 -20 -20 -24 -104 -32 -116 -13 -170 -58 -170 -143 0 -43 38 -103 78 -122 13 -6 58 -15 100 -21 43 -6 79 -12 81 -14 1 -2 -1 -16 -6 -31 -6 -18 -30 -40 -71 -64 -75 -45 -139 -56 -401 -68 -139 -6 -175 -10 -181 -22 -13 -25 -43 -237 -36 -249 9 -14 396 -15 521 -1 96 11 172 40 221 83 16 14 54 47 86 73 77 67 98 95 153 202 l48 92 166 -1 c91 0 254 -4 363 -8 213 -7 228 -11 243 -68 10 -40 101 -169 137 -194 18 -13 65 -49 103 -80 39 -30 91 -68 116 -82 l46 -27 542 0 541 0 58 32 c97 54 144 89 223 168 61 60 84 93 120 167 l44 92 371 0 371 1 48 -89 c79 -150 193 -269 318 -333 56 -28 229 -39 567 -36 l285 3 3 23 c2 12 2 23 0 24 -2 1 -141 4 -310 7 -224 4 -310 9 -319 18 -7 7 -9 16 -5 20 4 5 149 9 322 11 l314 3 0 84 0 85 -47 0 c-27 1 -188 5 -359 9 -280 8 -315 11 -355 29 -60 27 -137 97 -124 111 6 6 50 20 98 32 76 19 91 26 122 60 30 33 35 46 35 87 0 74 -44 107 -185 137 -44 10 -86 23 -94 30 -33 32 64 142 165 186 43 19 75 22 353 30 168 4 325 8 349 9 l42 0 0 141 0 141 -337 -5 c-376 -5 -420 -11 -545 -71 -168 -81 -163 -75 -340 -378 -27 -47 -46 -70 -64 -74 -13 -3 -151 -4 -307 -2 -354 6 -357 7 -387 103 -16 51 -87 161 -142 222 -59 64 -177 139 -262 166 -69 22 -82 22 -571 22 -561 0 -545 2 -665 -76 -33 -21 -65 -39 -70 -39 -19 0 -132 -122 -147 -158 -8 -21 -23 -48 -33 -62 -9 -14 -30 -58 -46 -99 l-29 -73 -347 6 c-191 3 -354 9 -362 12 -8 3 -22 29 -30 57 -26 88 -76 168 -155 248 -125 125 -272 184 -492 196 l-117 6 -15 -30z m4753 -138 c0 -7 -21 -31 -47 -52 -25 -21 -68 -58 -95 -83 -42 -39 -118 -90 -133 -90 -3 0 -5 7 -5 15 0 21 82 107 144 153 28 20 53 40 56 44 7 9 50 26 68 27 6 1 12 -6 12 -14z m-2700 -13 c0 -5 -36 -34 -80 -66 -44 -31 -100 -77 -125 -101 -47 -46 -75 -57 -75 -29 0 24 125 155 173 182 39 21 107 30 107 14z m919 -131 c50 -16 168 -89 196 -123 31 -37 42 -77 24 -88 -7 -5 -51 -12 -98 -15 -75 -6 -91 -11 -128 -39 -95 -71 -84 -165 25 -220 26 -13 65 -26 87 -30 22 -4 48 -9 58 -12 50 -15 -15 -88 -113 -126 -53 -21 -73 -22 -505 -26 -306 -3 -463 -1 -490 7 -58 16 -157 96 -153 124 3 19 13 23 73 33 116 17 164 53 172 127 6 49 -10 88 -50 126 -24 21 -101 38 -192 41 -11 0 -26 4 -33 9 -18 11 2 51 50 101 76 82 131 107 257 121 108 11 778 3 820 -10z m-1900 -410 c45 -12 34 -28 -26 -36 -72 -9 -619 -8 -668 1 -46 8 -40 27 11 35 54 8 653 9 683 0z m2514 2 c200 -12 108 -23 -193 -23 -178 0 -300 4 -300 9 0 5 8 12 18 14 27 7 358 8 475 0z m-2973 -282 c0 -52 -239 -191 -360 -211 -70 -11 -390 -14 -427 -4 -34 9 -28 31 10 37 17 4 122 9 232 13 181 6 206 9 265 31 36 14 69 29 75 34 5 5 17 9 26 9 10 0 48 25 84 55 71 58 95 67 95 36z m2710 14 c0 -56 -162 -168 -305 -211 -54 -17 -102 -19 -462 -19 -305 0 -405 3 -414 12 -7 7 -10 16 -6 20 4 3 169 10 367 14 198 5 397 13 442 19 129 18 240 69 332 152 19 17 46 24 46 13z"/>
<path d="M0 1980 l0 -138 208 -6 c114 -3 275 -9 357 -12 l150 -6 51 -50 c28 -27 61 -67 73 -88 19 -34 20 -40 6 -53 -8 -9 -44 -18 -84 -22 -113 -11 -191 -77 -191 -161 0 -33 6 -46 38 -76 46 -44 92 -68 131 -68 45 0 81 -17 81 -38 0 -28 -50 -69 -118 -97 -56 -23 -83 -26 -280 -35 -119 -5 -263 -10 -319 -10 l-103 0 0 -145 0 -145 48 0 c171 1 611 22 650 32 87 21 196 75 251 125 97 86 211 248 211 298 0 13 45 15 374 15 l373 0 27 -62 c33 -76 148 -221 213 -269 73 -54 190 -107 263 -118 38 -7 256 -11 531 -11 l465 0 60 36 c32 20 74 42 93 50 58 24 127 84 183 158 29 39 58 76 63 82 6 6 23 38 39 72 l30 62 367 0 367 0 33 -70 c17 -38 35 -70 39 -70 4 0 18 -16 32 -36 47 -66 162 -175 208 -199 124 -63 368 -100 510 -78 119 19 120 47 3 57 -35 3 -92 9 -128 12 -36 3 -65 9 -65 14 0 4 62 11 138 14 75 4 144 10 152 15 9 5 22 41 31 85 l17 76 -72 0 c-279 0 -461 37 -523 105 -48 51 -44 62 25 70 98 12 202 89 202 149 0 79 -82 142 -207 158 -42 5 -80 11 -85 14 -18 12 -5 38 44 91 101 106 173 124 514 123 202 0 224 2 232 18 11 20 42 196 42 236 l0 26 -365 0 -366 0 -75 -50 c-41 -28 -112 -87 -158 -131 -84 -80 -85 -81 -176 -269 -17 -36 -76 -43 -380 -47 -230 -3 -300 -1 -320 9 -16 9 -45 51 -78 113 -89 167 -136 219 -295 323 l-78 52 -566 0 -565 0 -85 -51 c-46 -28 -111 -76 -143 -106 -71 -65 -150 -180 -168 -243 -8 -25 -17 -56 -20 -70 -7 -25 -8 -25 -157 -31 -180 -8 -551 3 -564 16 -5 6 -33 57 -61 114 -89 175 -240 314 -390 354 -42 12 -136 16 -397 20 l-343 5 0 -138z m5110 -34 c0 -16 -26 -39 -160 -140 -90 -69 -118 -72 -80 -11 22 36 87 89 170 138 51 30 70 34 70 13z m-2710 -16 c0 -5 -19 -22 -42 -37 -24 -15 -54 -38 -68 -52 -56 -54 -150 -100 -150 -73 0 14 71 92 83 92 7 0 37 18 67 40 52 38 110 54 110 30z m990 -126 c45 -20 190 -152 190 -172 0 -10 -58 -26 -140 -37 -65 -9 -128 -42 -145 -76 -8 -15 -15 -49 -15 -75 0 -68 39 -103 153 -138 120 -37 117 -52 -25 -136 l-66 -40 -470 0 c-466 0 -470 0 -498 22 -50 37 -114 102 -114 115 0 11 57 33 90 33 8 0 34 9 57 20 109 49 111 200 5 256 -24 13 -71 25 -112 29 -48 5 -73 12 -77 22 -6 16 51 104 96 147 56 54 84 56 576 53 428 -3 452 -4 495 -23z m765 -399 c19 -9 19 -9 -5 -16 -31 -9 -636 -11 -679 -3 -42 9 -39 22 7 27 72 8 657 1 677 -8z m-2892 -2 c70 -3 124 -9 120 -13 -9 -9 -253 -15 -462 -12 -153 2 -171 19 -26 25 189 7 244 7 368 0z m2427 -287 c0 -19 -19 -39 -85 -89 -156 -117 -102 -107 -598 -106 -487 2 -488 12 -2 28 171 6 335 15 365 21 57 11 148 60 240 129 63 47 80 51 80 17z m-2700 3 c0 -22 -108 -112 -175 -144 -91 -44 -188 -55 -497 -55 -285 1 -286 16 -3 25 278 9 368 23 469 74 45 22 103 56 131 75 51 36 75 45 75 25z"/>
</g>
<g id="layer102" fill="#8c40dc" stroke="none">
<path d="M5776 2958 c-22 -32 -23 -344 -2 -374 12 -15 19 -17 32 -8 29 17 36 69 32 219 -5 171 -23 219 -62 163z"/>
<path d="M5090 2775 c-17 -20 -7 -67 30 -140 78 -155 190 -260 190 -177 -1 39 -32 103 -106 214 -70 105 -94 127 -114 103z"/>
<path d="M6436 2722 c-65 -100 -137 -244 -134 -267 4 -29 36 -30 64 -4 63 59 163 247 164 307 0 28 -3 32 -25 32 -20 0 -34 -14 -69 -68z"/>
<path d="M5236 628 c-39 -39 -111 -160 -144 -241 -18 -46 -21 -61 -11 -73 6 -8 17 -14 24 -14 16 0 73 62 105 115 13 22 27 42 32 45 14 11 60 122 65 161 5 35 4 39 -17 39 -12 0 -37 -15 -54 -32z"/>
<path d="M6310 622 c0 -45 50 -149 116 -242 50 -70 60 -80 87 -80 28 0 21 44 -23 137 -43 93 -120 207 -145 217 -30 11 -35 6 -35 -32z"/>
<path d="M5775 490 c-22 -42 -22 -306 1 -338 21 -30 52 -29 60 3 11 43 -1 318 -14 343 -17 30 -28 28 -47 -8z"/>
</g>
<g id="layer103" fill="#a6a5a5" stroke="none">
<path d="M6338 2243 c12 -2 30 -2 40 0 9 3 -1 5 -23 4 -22 0 -30 -2 -17 -4z"/>
<path d="M11107 2243 c18 -2 50 -2 70 0 21 2 7 4 -32 4 -38 0 -55 -2 -38 -4z"/>
<path d="M8258 2233 c12 -2 32 -2 45 0 12 2 2 4 -23 4 -25 0 -35 -2 -22 -4z"/>
<path d="M9057 2233 c18 -2 50 -2 70 0 21 2 7 4 -32 4 -38 0 -55 -2 -38 -4z"/>
<path d="M638 2103 c12 -2 32 -2 45 0 12 2 2 4 -23 4 -25 0 -35 -2 -22 -4z"/>
<path d="M6825 2050 c33 -33 62 -60 64 -60 3 0 -21 27 -54 60 -33 33 -62 60 -64 60 -3 0 21 -27 54 -60z"/>
<path d="M10629 2083 l-24 -28 30 25 c17 14 32 26 34 28 2 1 0 2 -6 2 -5 0 -20 -12 -34 -27z"/>
<path d="M10961 2091 c-1 -8 -13 -29 -28 -45 l-28 -31 34 31 c18 18 31 38 28 45 -4 11 -6 11 -6 0z"/>
<path d="M7904 2058 l-29 -33 33 29 c17 17 32 31 32 33 0 8 -8 1 -36 -29z"/>
<path d="M4913 2039 c-24 -17 -43 -32 -43 -35 0 -3 20 9 45 26 25 17 45 33 45 35 0 7 -2 6 -47 -26z"/>
<path d="M8030 1953 l-55 -58 58 55 c31 30 57 56 57 57 0 8 -10 -1 -60 -54z"/>
<path d="M10739 1963 l-34 -38 38 34 c34 33 42 41 34 41 -2 0 -19 -17 -38 -37z"/>
<path d="M3660 1967 c0 -2 15 -16 33 -33 l32 -29 -29 33 c-28 30 -36 37 -36 29z"/>
<path d="M5100 1960 c13 -8 13 -12 1 -32 -13 -21 -13 -22 2 -9 23 18 22 51 0 51 -15 0 -16 -2 -3 -10z"/>
<path d="M6283 1963 c15 -2 37 -2 50 0 12 2 0 4 -28 4 -27 0 -38 -2 -22 -4z"/>
<path d="M11253 1963 c42 -2 112 -2 155 0 42 1 7 3 -78 3 -85 0 -120 -2 -77 -3z"/>
<path d="M8353 1953 c15 -2 39 -2 55 0 15 2 2 4 -28 4 -30 0 -43 -2 -27 -4z"/>
<path d="M9038 1953 c17 -2 47 -2 65 0 17 2 3 4 -33 4 -36 0 -50 -2 -32 -4z"/>
<path d="M11008 1953 c12 -2 30 -2 40 0 9 3 -1 5 -23 4 -22 0 -30 -2 -17 -4z"/>
<path d="M2375 1943 c11 -3 23 -10 26 -15 3 -5 9 -3 12 6 5 13 0 16 -26 15 -21 -1 -25 -3 -12 -6z"/>
<path d="M2267 1895 c-20 -14 -37 -28 -37 -31 0 -2 18 8 40 22 35 23 47 34 37 34 -1 0 -19 -11 -40 -25z"/>
<path d="M7971 1877 c-1 -21 26 -34 41 -19 8 8 5 9 -10 6 -14 -4 -22 0 -25 13 -4 17 -5 17 -6 0z"/>
<path d="M4718 1863 c-18 -21 -31 -43 -25 -43 2 0 13 14 25 30 25 33 24 41 0 13z"/>
<path d="M1095 1790 c9 -16 18 -30 21 -30 2 0 -2 14 -11 30 -9 17 -18 30 -21 30 -2 0 2 -13 11 -30z"/>
<path d="M4965 1718 l-40 -43 43 40 c39 36 47 45 39 45 -2 0 -21 -19 -42 -42z"/>
<path d="M3520 1705 c19 -19 36 -35 39 -35 3 0 -10 16 -29 35 -19 19 -36 35 -39 35 -3 0 10 -16 29 -35z"/>
<path d="M7108 1733 c34 -2 88 -2 120 0 31 2 3 3 -63 3 -66 0 -92 -1 -57 -3z"/>
<path d="M10083 1713 c48 -2 125 -2 170 0 45 1 6 3 -88 3 -93 0 -130 -2 -82 -3z"/>
<path d="M4473 1613 c9 -2 25 -2 35 0 9 3 1 5 -18 5 -19 0 -27 -2 -17 -5z"/>
<path d="M773 1603 c9 -2 25 -2 35 0 9 3 1 5 -18 5 -19 0 -27 -2 -17 -5z"/>
<path d="M1333 1603 c37 -2 97 -2 135 0 37 2 6 3 -68 3 -74 0 -105 -1 -67 -3z"/>
<path d="M1723 1603 c32 -2 81 -2 110 0 29 2 3 3 -58 3 -60 0 -84 -1 -52 -3z"/>
<path d="M2253 1603 c9 -2 25 -2 35 0 9 3 1 5 -18 5 -19 0 -27 -2 -17 -5z"/>
<path d="M4068 1603 c61 -2 163 -2 225 0 61 1 11 3 -113 3 -124 0 -174 -2 -112 -3z"/>
<path d="M680 1590 c-11 -8 -7 -9 15 -4 37 8 45 14 19 14 -10 0 -26 -5 -34 -10z"/>
<path d="M11022 1528 c-10 -30 -10 -31 3 -14 13 17 21 46 12 46 -1 0 -8 -15 -15 -32z"/>
<path d="M6853 1543 c59 -2 155 -2 215 0 59 1 10 3 -108 3 -118 0 -167 -2 -107 -3z"/>
<path d="M9468 1543 c34 -2 88 -2 120 0 31 2 3 3 -63 3 -66 0 -92 -1 -57 -3z"/>
<path d="M9285 1529 c-9 -14 4 -27 13 -13 4 6 14 14 22 17 10 4 8 6 -7 6 -12 1 -25 -4 -28 -10z"/>
<path d="M9778 1533 c12 -2 32 -2 45 0 12 2 2 4 -23 4 -25 0 -35 -2 -22 -4z"/>
<path d="M9900 1520 c0 -5 7 -10 15 -10 8 0 15 5 15 10 0 6 -7 10 -15 10 -8 0 -15 -4 -15 -10z"/>
<path d="M9498 1503 c56 -2 148 -2 205 0 56 1 10 3 -103 3 -113 0 -159 -2 -102 -3z"/>
<path d="M6718 1483 c34 -2 90 -2 125 0 34 2 6 3 -63 3 -69 0 -97 -1 -62 -3z"/>
<path d="M7033 1483 c26 -2 68 -2 95 0 26 2 4 3 -48 3 -52 0 -74 -1 -47 -3z"/>
<path d="M5203 1445 c0 -22 2 -30 4 -17 2 12 2 30 0 40 -3 9 -5 -1 -4 -23z"/>
<path d="M6480 1455 c14 -8 32 -14 40 -14 8 0 0 6 -19 14 -42 19 -54 19 -21 0z"/>
<path d="M3672 1423 c70 -2 187 -2 260 0 73 1 16 3 -127 3 -143 0 -203 -2 -133 -3z"/>
<path d="M7452 1423 c37 -2 100 -2 140 0 40 1 10 3 -67 3 -77 0 -110 -1 -73 -3z"/>
<path d="M3463 1413 c9 -2 25 -2 35 0 9 3 1 5 -18 5 -19 0 -27 -2 -17 -5z"/>
<path d="M7715 1413 c11 -3 27 -10 35 -17 13 -10 13 -9 1 7 -7 9 -23 16 -35 16 -20 -1 -20 -2 -1 -6z"/>
<path d="M10780 1405 c-15 -18 3 -43 55 -77 17 -12 12 -4 -12 17 -49 42 -52 52 -20 65 15 6 17 9 6 9 -9 1 -22 -6 -29 -14z"/>
<path d="M873 1403 c20 -2 54 -2 75 0 20 2 3 4 -38 4 -41 0 -58 -2 -37 -4z"/>
<path d="M1258 1403 c23 -2 59 -2 80 0 20 2 1 4 -43 4 -44 0 -61 -2 -37 -4z"/>
<path d="M4159 1402 c11 -8 9 -11 -10 -15 -22 -5 -22 -5 -1 -4 25 2 32 19 10 25 -10 3 -9 1 1 -6z"/>
<path d="M1385 1390 c-3 -5 3 -10 14 -10 12 0 21 5 21 10 0 6 -6 10 -14 10 -8 0 -18 -4 -21 -10z"/>
<path d="M868 1373 c34 -2 90 -2 125 0 34 2 6 3 -63 3 -69 0 -97 -1 -62 -3z"/>
<path d="M1183 1373 c31 -2 83 -2 115 0 31 2 5 3 -58 3 -63 0 -89 -1 -57 -3z"/>
<path d="M3663 1373 c82 -2 212 -2 290 0 78 1 12 3 -148 3 -159 0 -223 -2 -142 -3z"/>
<path d="M9320 1338 c-19 -16 -26 -26 -15 -20 18 9 64 53 54 52 -2 -1 -20 -15 -39 -32z"/>
<path d="M4621 1275 c0 -5 6 -21 14 -35 8 -14 14 -20 14 -15 0 6 -6 21 -14 35 -8 14 -14 21 -14 15z"/>
<path d="M6894 1243 c-15 -20 -23 -33 -16 -29 13 8 56 66 49 66 -3 0 -17 -17 -33 -37z"/>
<path d="M9078 1263 c12 -2 32 -2 45 0 12 2 2 4 -23 4 -25 0 -35 -2 -22 -4z"/>
<path d="M10993 1263 c9 -2 25 -2 35 0 9 3 1 5 -18 5 -19 0 -27 -2 -17 -5z"/>
<path d="M6248 1253 c12 -2 32 -2 45 0 12 2 2 4 -23 4 -25 0 -35 -2 -22 -4z"/>
<path d="M8448 1253 c84 -2 219 -2 300 0 81 1 12 3 -153 3 -165 0 -231 -2 -147 -3z"/>
<path d="M11328 1253 c29 -2 74 -2 100 0 26 2 2 3 -53 3 -55 0 -76 -1 -47 -3z"/>
<path d="M6038 1243 c12 -2 30 -2 40 0 9 3 -1 5 -23 4 -22 0 -30 -2 -17 -4z"/>
<path d="M7859 1212 c11 -16 28 -35 38 -43 9 -8 2 5 -17 29 -38 48 -52 57 -21 14z"/>
<path d="M1110 1190 c-11 -22 -18 -40 -15 -40 2 0 14 18 25 40 11 22 18 40 15 40 -2 0 -14 -18 -25 -40z"/>
<path d="M1940 1226 c0 -11 30 -66 36 -66 2 0 -3 15 -12 33 -19 36 -24 44 -24 33z"/>
<path d="M568 1133 c12 -2 32 -2 45 0 12 2 2 4 -23 4 -25 0 -35 -2 -22 -4z"/>
<path d="M342 1123 c32 -2 84 -2 115 0 32 2 6 3 -57 3 -63 0 -89 -1 -58 -3z"/>
<path d="M5273 1123 c20 -2 54 -2 75 0 20 2 3 4 -38 4 -41 0 -58 -2 -37 -4z"/>
<path d="M6143 1083 c20 -2 54 -2 75 0 20 2 3 4 -38 4 -41 0 -58 -2 -37 -4z"/>
<path d="M8642 1083 c48 -2 129 -2 180 0 51 1 12 3 -87 3 -99 0 -141 -2 -93 -3z"/>
<path d="M11193 1083 c48 -2 125 -2 170 0 45 1 6 3 -88 3 -93 0 -130 -2 -82 -3z"/>
<path d="M9078 1033 c12 -2 32 -2 45 0 12 2 2 4 -23 4 -25 0 -35 -2 -22 -4z"/>
<path d="M6138 1023 c34 -2 90 -2 125 0 34 2 6 3 -63 3 -69 0 -97 -1 -62 -3z"/>
<path d="M8593 1023 c59 -2 154 -2 210 0 56 1 8 3 -108 3 -115 0 -161 -2 -102 -3z"/>
<path d="M11223 1023 c43 -2 110 -2 150 0 40 1 5 3 -78 3 -82 0 -115 -2 -72 -3z"/>
<path d="M3620 969 c-35 -31 -35 -31 -3 -9 18 11 35 25 38 30 10 16 2 11 -35 -21z"/>
<path d="M6493 983 c9 -2 25 -2 35 0 9 3 1 5 -18 5 -19 0 -27 -2 -17 -5z"/>
<path d="M10908 983 c12 -2 30 -2 40 0 9 3 -1 5 -23 4 -22 0 -30 -2 -17 -4z"/>
<path d="M6258 973 c34 -2 90 -2 125 0 34 2 6 3 -63 3 -69 0 -97 -1 -62 -3z"/>
<path d="M11113 973 c48 -2 125 -2 170 0 45 1 6 3 -88 3 -93 0 -130 -2 -82 -3z"/>
<path d="M3278 963 c12 -2 32 -2 45 0 12 2 2 4 -23 4 -25 0 -35 -2 -22 -4z"/>
<path d="M458 953 c18 -2 45 -2 60 0 15 2 0 4 -33 4 -33 0 -45 -2 -27 -4z"/>
<path d="M2992 953 c37 -2 100 -2 140 0 40 1 10 3 -67 3 -77 0 -110 -1 -73 -3z"/>
<path d="M5478 953 c12 -2 30 -2 40 0 9 3 -1 5 -23 4 -22 0 -30 -2 -17 -4z"/>
<path d="M168 943 c23 -2 59 -2 80 0 20 2 1 4 -43 4 -44 0 -61 -2 -37 -4z"/>
<path d="M2727 943 c18 -2 50 -2 70 0 21 2 7 4 -32 4 -38 0 -55 -2 -38 -4z"/>
<path d="M5288 943 c18 -2 45 -2 60 0 15 2 0 4 -33 4 -33 0 -45 -2 -27 -4z"/>
<path d="M2618 933 c12 -2 30 -2 40 0 9 3 -1 5 -23 4 -22 0 -30 -2 -17 -4z"/>
<path d="M608 923 c12 -2 32 -2 45 0 12 2 2 4 -23 4 -25 0 -35 -2 -22 -4z"/>
<path d="M203 913 c59 -2 155 -2 215 0 59 1 10 3 -108 3 -118 0 -167 -2 -107 -3z"/>
<path d="M2762 913 c92 -2 245 -2 340 0 95 1 20 3 -167 3 -187 0 -265 -2 -173 -3z"/>
<path d="M5363 903 c15 -2 39 -2 55 0 15 2 2 4 -28 4 -30 0 -43 -2 -27 -4z"/>
<path d="M408 843 c23 -2 61 -2 85 0 23 2 4 4 -43 4 -47 0 -66 -2 -42 -4z"/>
<path d="M2468 843 c12 -2 30 -2 40 0 9 3 -1 5 -23 4 -22 0 -30 -2 -17 -4z"/>
<path d="M5293 843 c26 -2 67 -2 90 0 23 2 2 3 -48 3 -49 0 -68 -1 -42 -3z"/>
<path d="M62 833 c27 -2 69 -2 95 0 27 2 5 3 -47 3 -52 0 -74 -1 -48 -3z"/>
</g>


</svg>