<?xml version="1.0" encoding="UTF-8" standalone="no"?>
<!DOCTYPE svg PUBLIC "-//W3C//DTD SVG 1.1//EN" "http://www.w3.org/Graphics/SVG/1.1/DTD/svg11.dtd">
<svg version="1.1" xmlns="http://www.w3.org/2000/svg" xmlns:xlink="http://www.w3.org/1999/xlink" preserveAspectRatio="xMidYMid meet" viewBox="0 0 640 640" width="640" height="640"><defs><path d="M609.56 600.65L43.57 600.65L43.57 34.66L609.56 34.66L609.56 600.65M326.56 469.27C214.33 469.27 123.34 478.54 123.34 489.98C123.34 501.42 214.33 510.69 326.56 510.69C438.8 510.69 529.79 501.42 529.79 489.98C529.79 478.54 438.8 469.27 326.56 469.27" id="d75P1cV9rF"></path><path d="M326.56 510.69C214.33 510.69 123.34 501.42 123.34 489.98C123.34 478.54 214.33 469.27 326.56 469.27C438.8 469.27 529.79 478.54 529.79 489.98C529.79 501.42 438.8 510.69 326.56 510.69" id="a32hZ4nCrI"></path><path d="M189.7 180.66C189.7 185.91 193.96 190.17 199.21 190.17C204.46 190.17 208.72 185.91 208.72 180.66C208.72 175.41 204.46 171.15 199.21 171.15C193.96 171.15 189.7 175.41 189.7 180.66" id="f1rV9E5XQ"></path><path d="M222.12 203.14L223.3 195.26L213.74 193.87L212.87 200.39L222.12 203.14" id="isevhbBu7"></path><path d="M247.87 200.97C252.51 202.73 274.24 201.98 288.94 194.26C289.61 194.97 290.27 195.69 290.91 196.42C292.96 201.68 295.67 206.62 298.16 211.68C295.99 213.56 293.66 215.28 291.87 215.76C291.87 215.76 250.42 239.58 231.3 238.62C231.01 238.53 229.54 238.11 226.9 237.34C224.03 214.71 222.44 202.13 222.12 199.62C222.12 199.62 230.62 194.39 247.87 200.97" id="au8rd09rP"></path><path d="M189.54 466.08C189.54 466.08 186.97 469.18 186.06 476.33C184.93 485.15 184.38 485.86 202.88 487.94C210.15 488.75 236.77 492.03 241.47 487.81C241.47 487.81 246.99 484.89 231.4 478.02C221.7 473.75 217.84 472.05 203.16 465.36C202.26 465.41 197.71 465.65 189.54 466.08" id="c3k68Ysu5z"></path><path d="M306.49 464.94C306.49 464.94 303.37 467.47 301.06 474.31C298.23 482.72 310.94 485.85 329.5 494.99C336.06 498.23 347.7 499.65 353.14 496.44C353.14 496.44 359.13 494.66 345.19 484.86C336.52 478.77 333.06 476.34 320 466.91C319.09 466.78 314.59 466.12 306.49 464.94" id="c1gdhmhKz4"></path><path d="M223.23 409.11L256.37 383.83L273.3 392.25C274.15 395.86 274.62 397.86 274.72 398.26C274.72 398.26 231.79 458.23 218.05 472.17C218.05 472.17 180.67 466.68 182.71 462.11C187.53 451.38 197.17 430.44 223.23 409.11" id="a1AoCfDsyG"></path><path d="M244.2 297.66C244.2 297.66 254.33 318.05 273.16 392.61C273.16 392.61 272.31 396.25 256.18 395.86C249.56 395.69 252.22 398.38 247.14 391.43C247.14 391.43 214.94 341.44 190.4 308.2C182.77 297.86 222.82 300.75 244.2 297.66" id="e12ZGX9VaJ"></path><path d="M258.99 434.21L242.46 395.72L263 381.52C265.95 378.77 267.59 377.25 267.92 376.94C267.92 376.94 304.84 431.84 330.31 477.67C330.31 477.67 297.14 477.06 284.15 471.59C279.8 469.75 269.95 464.94 258.99 434.21" id="cmPKT4P58"></path><path d="M239.28 322.58C261.89 365.49 274.45 389.33 276.96 394.09C276.96 394.09 279.42 402.13 269.66 410.07C269.66 410.07 254.54 408.48 244.73 398.26C244.73 398.26 196.9 353.7 195.21 352.1C181.77 339.37 175.79 289.02 187.36 287.31C207.31 284.35 218.31 305 239.28 322.58" id="j2BEYpe1Ch"></path><path d="M246.36 343.04L217.17 344.68L207.08 302.87L245.81 300.53L246.36 343.04" id="e4q3d3Mizu"></path><path d="M243.15 266.88C243.15 266.88 248.75 226.44 233.85 207.76C233.85 207.76 232.32 198.43 217.93 199.88C217.93 199.88 162.78 200.21 172.72 228.42C173.51 230.86 177.43 243.1 184.49 265.13C180.08 289.62 177.63 303.23 177.14 305.95C178.1 311.55 187.76 311.94 187.76 311.94C215.68 319.21 239.87 312.02 249.19 304.02C249.19 304.02 243.76 269.47 243.15 266.88" id="cEBzMcgAr"></path><path d="M198.24 203.14C198.24 203.14 188.57 196.25 170.11 196.38C165.06 196.41 144.38 187.84 133.43 175.12C133.43 175.12 126.59 167.52 125.07 169.5C123.55 171.48 120.19 177.12 115.57 180.89C115.57 180.89 119.92 192.12 123.72 194.84C123.72 194.84 162.97 235.88 181.22 241.67C180.94 241.41 179.54 240.12 177.03 237.79L198.24 203.14" id="bkbH4phPq"></path><path d="M217.2 200.51C215.82 200.1 215.05 199.87 214.9 199.82C214.9 199.82 214.44 192.91 214.45 187.1C214.47 180.5 196.55 187.17 196.55 187.17C196.65 188.11 197.15 192.79 198.05 201.21L194.7 203.14C201.79 208.98 205.72 212.23 206.51 212.88C211.43 216.75 221.47 224.05 221.47 224.05C221.47 224.05 224.37 220.1 223.02 210.91C222.65 208.35 220.99 204.79 217.2 200.51" id="f1U3mRdTkg"></path><path d="M254.42 171.18C254.42 171.18 253.78 163.81 252.22 164.79C250.65 165.76 248.41 172.27 248.41 172.27C248.87 172.61 251.14 174.35 255.24 177.46L261.17 176.5L262.98 169.82L254.42 171.18" id="a151WSP9lQ"></path><path d="M256.13 175.67C258.83 176.36 260.32 176.74 260.62 176.82C260.62 176.82 267.32 173.12 268.69 169.62C270.06 166.1 263.53 158.04 262.91 157.38C262.29 156.73 257.72 154.26 257.72 154.26C257.5 154.37 256.42 154.92 254.48 155.91C251.53 158.23 249.9 159.51 249.57 159.77C249.57 159.77 247.36 165.87 247.09 166.25C246.81 166.65 255.33 173.84 255.33 173.84C255.38 173.97 255.65 174.57 256.13 175.67" id="b1HTWc2mB3"></path><path d="M250.67 162.72C250.67 162.72 240.58 154.6 239.01 154.1C239.01 154.1 237.17 155.85 237.51 156.89C237.85 157.93 247.72 167.09 247.72 167.09C247.92 166.8 248.9 165.34 250.67 162.72" id="bohOZxtni"></path><path d="M218.86 195.22C218.86 195.22 207.13 195.5 197.53 188.68C187.93 181.87 186.29 177.32 185.74 170.14C185.06 161.22 188.7 148.52 202.9 149.12C217.1 149.73 225.34 158 225.27 173.19C225.15 197.19 218.86 195.22 218.86 195.22" id="ajANUu2F1"></path><path d="M223.02 181.41C223.02 181.41 215 180.58 207.89 182.81C207.89 182.81 213.86 188.49 220.76 187.24C220.76 187.24 221.95 185.15 223.02 181.41" id="i2IJgGiqDo"></path><path d="M198.65 188.07C198.65 188.07 192.97 189.17 188.06 184.75C183.16 180.33 188.66 177.17 190.6 177.73C192.54 178.29 198.97 188.26 198.97 188.26" id="cg6WcGAHD"></path><path d="M277.43 212.38C283.58 215.38 295.5 215.57 298.72 211.35C291.01 191.34 288.72 184.97 268.5 165.34C268.5 165.34 256.07 175 258.89 177.7C268.79 187.2 277.41 211.95 277.43 212.38" id="akPQGLyda"></path><path d="M108.11 138.53C108.11 138.53 101.74 134.76 103.3 133.78C104.85 132.79 111.68 133.58 111.68 133.58C111.8 134.14 112.37 136.94 113.41 141.98L109.97 146.92L103.17 145.66L108.11 138.53" id="e1ulXnHlyJ"></path><path d="M111.41 142.01C110.86 144.74 110.56 146.26 110.5 146.56C110.5 146.56 104.27 150.99 100.51 150.71C96.75 150.43 92.31 141.05 91.99 140.2C91.67 139.36 91.42 134.17 91.42 134.17C91.61 134.02 92.58 133.29 94.32 131.97C97.68 130.31 99.55 129.4 99.92 129.21C99.92 129.21 106.37 129.87 106.84 129.78C107.31 129.71 110.11 140.5 110.11 140.5C110.19 140.6 110.63 141.11 111.41 142.01" id="b2Jw4PISv"></path><path d="M102.19 131.75C102.19 131.75 99.24 119.14 99.47 117.51C99.47 117.51 101.85 116.6 102.64 117.37C103.42 118.13 107.41 130.99 107.41 130.99C107.06 131.04 105.32 131.3 102.19 131.75" id="d5gV8wycvy"></path><path d="M135.27 177.61C135.3 184.45 130.31 195.27 125.11 196.35C110.42 180.73 105.67 175.92 96.74 149.18C96.74 149.18 110.83 142.16 112.04 145.87C116.31 158.91 134.89 177.4 135.27 177.61" id="fpRNFm0g"></path><path d="M208.67 215.45L208.67 195.26L194.7 194.81L193.68 203.14L208.67 215.45" id="boM4z1D6A"></path><path d="M235.76 303.39C235.76 303.39 185.87 275.07 179.25 294.26C170.92 318.35 167.96 341.19 167.96 341.19C200.34 329.89 241.12 309.62 241.12 309.62C240.77 309.2 238.98 307.13 235.76 303.39" id="b4yPk4hj9j"></path><path d="M202.9 149.12C211.48 149.49 217.87 152.67 221.58 158.47C220.75 157.27 219.04 155.15 216.79 154.53C216.79 154.53 215.77 157.07 213.89 157.14C213.89 157.14 207.3 158.08 197.59 153.88C187.88 149.68 191.13 162.65 192.76 164.75C194.4 166.85 197.3 177.06 195.78 180.03C194.26 183 189.1 177.62 187.81 178.51C187.8 178.51 187.71 178.54 187.7 178.54C186.44 175.97 185.98 173.31 185.74 170.14C185.06 161.22 188.7 148.52 202.9 149.12" id="cESh9swTn"></path><path d="M221.99 159.11L221.87 158.91L221.99 159.11" id="bddJ9gKY"></path><path d="M240.5 309.72C240.5 309.72 249.27 327.35 262.18 334.79C262.18 334.79 255.04 314.38 251.14 302.09C246.24 286.62 243.15 266.88 243.15 266.88C242.97 269.74 242.09 284.02 240.5 309.72" id="b5p9mDjzRl"></path><path d="M408.32 188.37C408.32 188.37 401.76 196.81 404.65 207.33C404.65 207.33 407.75 204.27 412.37 205.58C417 206.89 420.39 203.52 422.9 202.65C425.41 201.79 408.32 188.37 408.32 188.37" id="fdERd1xty"></path><path d="M435.84 216.26C435.84 216.26 439.23 210.32 443 207.9C443 208.03 443 209 443 209.13C443 209.13 446.81 205.71 449.32 201.37C451.83 197.03 452.85 187.96 451.5 186.7C450.14 185.45 439.42 189.73 438.75 190.17C438.07 190.62 432.19 199.28 432.04 199.92C431.89 200.56 435.84 216.26 435.84 216.26" id="b368ICHw67"></path><path d="M402.53 174.87C413.81 163.96 427.74 175.35 427.74 175.35C427.74 175.35 422.33 179.35 417.44 189.09C411.46 190.03 403.16 189.38 403.8 195.16C397.02 190.9 395.22 181.94 402.53 174.87" id="b1OxVkvy29"></path><path d="M351.39 247.48C351.39 247.48 350.58 260.52 360.83 262.13C371.06 263.73 411.95 254.8 418.63 244.03C425.32 233.26 400.72 221.84 398.36 222.41C396 222.98 362.92 238.41 351.39 247.48" id="d5BlV6LtGO"></path><path d="M415.81 218.18C401.02 211.32 387.39 225.7 386.72 226.96C385.68 230.52 400.47 235.37 402.67 253.15C403.78 262.18 417.13 230.63 417.13 230.63C417.13 230.63 419.78 225.56 419.78 225.37C419.78 225.2 417.33 218.95 415.81 218.18" id="b1mqLeAHdq"></path><path d="M358.15 242.09C363.03 246.48 365.57 257.42 363.22 262.09C343.29 263.23 337.62 260.18 313.26 249.75C313.26 249.75 308.03 235.65 314.16 238.67C325.76 244.39 357.77 242.25 358.15 242.09" id="c1eciG2Jk6"></path><path d="M309.16 236.08C309.16 236.08 301.12 237.19 302.89 236.69C308.76 235.02 309.89 231.39 309.89 231.39C310.22 231.58 311.85 232.53 314.8 234.26L316.24 240.07L311.26 244.45L309.16 236.08" id="d9TDLl8Vo"></path><path d="M313.62 235.81C315.23 237.99 316.12 239.2 316.3 239.44C316.3 239.44 317.95 246.24 315.5 248.93C313.03 251.62 303 249.63 300.97 248.64C300.21 248.27 296.05 246.02 296.05 246.02C296.06 245.77 296.11 244.56 296.22 242.38C297.06 238.75 297.53 236.73 297.62 236.32C297.62 236.32 301.96 231.81 302.18 231.41C302.41 231 311.76 235.83 311.76 235.83C311.89 235.83 312.5 235.82 313.62 235.81" id="a2LoYOrW3D"></path><path d="M482.63 200.3C486.29 206.08 500.58 209.9 505.53 208C509.48 186.92 503.15 175.33 496.25 147.99C496.25 147.99 482.87 148.31 485 155.25C489.04 168.36 482.84 199.92 482.63 200.3" id="bJZroDWuM"></path><path d="M431 227.31C439.59 216.06 454.56 213.75 455.79 214.46C458.54 216.95 482.59 241.61 475.14 225.31C471.03 216.3 477.11 245.05 449.53 225.39C449.53 225.39 439.65 225.77 439.55 225.61C439.46 225.46 430.11 228.76 431 227.31" id="d4sbRLpYdn"></path><path d="M483.15 149.58C483.15 149.58 481.19 141.94 479.45 142.56C479.03 142.72 476.49 150.1 476.49 150.1C476.76 150.45 478.11 152.2 480.54 155.35L486.1 157.64L491.15 152.91L483.15 149.58" id="bNfKXtmyJ"></path><path d="M482.24 154.29C484.17 156.29 485.25 157.4 485.46 157.63C485.46 157.63 493.1 158 496.11 155.74C499.13 153.47 497.8 143.17 497.62 142.29C497.43 141.41 494.84 136.9 494.84 136.9C494.6 136.88 493.39 136.78 491.22 136.61C487.49 137.03 485.43 137.27 485.01 137.31C485.01 137.31 479.93 141.35 479.5 141.53C479.05 141.72 482.53 152.31 482.53 152.31C482.51 152.45 482.42 153.1 482.24 154.29" id="a50h840WX"></path><path d="M452.48 214.61C452.48 214.61 465.74 205.85 482.63 199.53C502.23 195.99 505.53 208 505.53 208C503.02 211.04 493.25 218.33 493.25 218.33C493.25 218.33 493.24 218.31 493.24 218.31C487.86 223.33 459.08 250.16 459.02 249.99C457.34 245.51 452.48 214.61 452.48 214.61" id="jqnwjTqaA"></path><path d="M474.65 459.93C474.65 459.93 478.26 461.7 482.02 467.86C486.65 475.44 482.52 478.02 466.48 487.48C460.18 491.2 446.2 493.04 440.18 491.12C440.18 491.12 438.84 486.39 450.23 478.87C459.06 473.03 451.27 476.94 461.92 464.85C462.77 464.52 467.01 462.88 474.65 459.93" id="b2YOQAlPcq"></path><path d="M431.8 415.89L393.6 399.2L379.16 411.4C379.19 415.1 379.2 417.16 379.21 417.57C379.21 417.57 438.07 462.72 454.72 473C454.72 473 486.8 461.72 483.73 457.77C476.5 448.49 462.17 430.43 431.8 415.89" id="d4b17I7v2h"></path><path d="M468.26 371.16L440.17 331.38L420.55 337.84C430.45 362.53 435.95 376.24 437.05 378.99C437.05 378.99 445.22 414.34 462.44 430.36C462.44 430.36 488.65 441.62 493.49 427.66C500.66 406.98 494.54 392.8 468.26 371.16" id="c57Sf8O2td"></path><path d="M384.98 312.6C384.98 312.6 379.98 334.81 379.38 411.72C379.38 411.72 381.07 415.05 396.64 410.84C403.03 409.11 401.09 412.35 404.38 404.4C404.38 404.4 423.79 348.19 439.74 310.08C444.71 298.22 406.48 310.53 384.98 312.6" id="bDgOPB8m6"></path><path d="M409.29 356.21C438.25 384.97 454.34 400.95 457.56 404.14C457.56 404.14 466.71 410.51 477.55 404.14C477.55 404.14 484.48 400.47 478.33 387.72C478.33 387.72 446.82 327.99 445.26 326.28C436.02 316.17 402.28 282.62 396.64 292.85C386.91 310.52 400.14 330.42 409.29 356.21" id="i34GJLVxD"></path><path d="M393.23 343.12L416.41 362.6L422.33 344.29L389.56 314.41L393.23 343.12" id="a27JmJt614"></path><path d="M381.71 305.32C381.86 304.51 384.61 292.43 388.31 286.55C388.31 286.55 384.83 244.36 399.73 225.67C399.73 225.67 403.83 215.31 415.65 217.8C415.65 217.8 470.81 218.13 460.86 246.33C460.15 248.41 454.46 265.06 453.75 267.14C453.75 267.14 450.59 272.38 450.78 276.72C452.84 280.32 469.33 309.1 471.39 312.69C467.84 320.94 449.03 328.94 449.03 328.94C428.16 333.25 422.83 331.33 410.51 327.2C393.23 321.41 381.25 328.29 381.25 328.29C378.27 325.3 380.33 316.06 381.71 305.32" id="lruN0PNs2"></path><path d="M415.25 218.76C417.31 218.15 418.46 217.81 418.69 217.74C418.69 217.74 419.14 210.83 419.13 205.02C419.11 198.41 437.03 205.09 437.03 205.09C436.93 206.02 436.43 210.7 435.53 219.13L439.28 219.83C430.72 224.41 425.97 226.96 425.02 227.47C420.09 231.34 413.52 233.68 406.71 245.49C406.71 245.49 401.28 235.34 405.26 227.74C408.78 221.01 411.56 220.38 415.25 218.76" id="a6aHpzgr3"></path><path d="M416.19 214.96C416.19 214.96 427.83 213.6 436.39 205.51C444.95 197.43 445.94 192.69 445.49 185.51C444.92 176.59 439.55 164.51 425.57 167.09C411.59 169.66 404.58 179.01 406.77 194.03C410.23 217.78 416.19 214.96 416.19 214.96" id="a1SkjOknM"></path><path d="M410.13 201.86C410.13 201.86 417.96 199.92 425.32 201.14C425.32 201.14 420.2 207.6 413.19 207.32C413.19 207.32 410.27 205.83 410.13 201.86" id="a2g1rQnGVV"></path><path d="M434.85 204.28C434.85 204.28 440.62 204.58 444.87 199.52C449.11 194.46 443.22 192.1 441.38 192.92C439.54 193.75 434.56 204.52 434.56 204.52" id="a10DHbNSSB"></path><path d="M468.26 422.45C468.26 422.45 469.71 440.41 484.2 455.48C484.2 455.48 489.12 457.22 491.73 455.48C494.34 453.74 494.63 427.95 488.54 419.84C482.46 411.73 468.26 422.45 468.26 422.45" id="dI80khigK"></path><path d="M479.41 142.22C479.41 142.22 475.32 128.62 474.89 127.05C474.46 125.48 477.52 124.83 479.03 126.33C479.74 127.05 485.04 139.38 485.04 139.38C484.67 139.6 482.81 140.66 479.45 142.56" id="a2RSC8lnRE"></path><path d="M412.67 176.32C412.67 176.32 414.64 185.72 420.49 189.75C426.69 194 435.62 195.44 434.56 202.1C434.56 202.1 438.71 199.02 440.47 197.28C440.47 197.28 442.98 198.36 445.58 198.54C448.96 198.78 455.84 195.25 458.3 187.74C458.3 187.74 453.52 187.43 451.21 183.37C450.33 181.83 441.38 158.26 419.78 167.15C419.78 167.15 410.64 170.24 412.67 176.32" id="bIXoDXDad"></path><path d="M415.12 172.83C415.12 172.83 408.63 167.63 399.39 174.16C394.74 177.45 396.2 182.11 396.59 182.31C396.98 182.51 395.82 179.25 399.69 176.85C403.92 174.24 409.61 174.8 412.41 175.52C415.21 176.25 415.12 172.83 415.12 172.83" id="a4xZdF6ldy"></path><path d="M305.76 233.74C305.76 233.74 296.82 223.44 295.84 223.74C294.87 224.06 293.83 224.58 294.54 226.12C295.24 227.67 302.11 235.96 302.11 235.96C302.35 235.81 303.57 235.07 305.76 233.74" id="e6IKSBGvs7"></path><path d="M300.66 234.13C300.66 234.13 288.59 227.77 287.79 228.41C287 229.05 286.22 229.91 287.44 231.1C288.65 232.28 298.06 237.52 298.06 237.52C298.24 237.29 299.1 236.16 300.66 234.13" id="d2qFdXV48"></path><path d="M300.03 238.4C300.03 238.4 287.22 233.72 286.51 234.46C285.81 235.21 285.16 236.17 286.52 237.18C287.89 238.18 297.92 242.11 297.92 242.11C298.06 241.86 298.76 240.62 300.03 238.4" id="l4DK6TeoP1"></path><path d="M303.2 244.6C303.2 244.6 290.39 239.93 289.68 240.67C288.98 241.42 288.32 242.37 289.69 243.38C291.06 244.39 301.09 248.31 301.09 248.31C301.23 248.07 301.93 246.83 303.2 244.6" id="c1m4zLY4I3"></path><path d="M314.63 235.02L314.66 234.91L314.83 234.38C315.06 227.96 315.18 224.4 315.21 223.68C315.21 223.68 313.02 222.03 311.62 225.02C310.59 227.23 309.89 231.39 309.89 231.39" id="b4YkHWnlK"></path></defs><g><g><g><use xlink:href="#d75P1cV9rF" opacity="1" fill="#f2f2f2" fill-opacity="1"></use><g><use xlink:href="#d75P1cV9rF" opacity="1" fill-opacity="0" stroke="#000000" stroke-width="1" stroke-opacity="0"></use></g></g><g><use xlink:href="#a32hZ4nCrI" opacity="1" fill="#554ba9" fill-opacity="1"></use><g><use xlink:href="#a32hZ4nCrI" opacity="1" fill-opacity="0" stroke="#000000" stroke-width="1" stroke-opacity="0"></use></g></g><g><use xlink:href="#f1rV9E5XQ" opacity="1" fill="#26285d" fill-opacity="1"></use><g><use xlink:href="#f1rV9E5XQ" opacity="1" fill-opacity="0" stroke="#000000" stroke-width="1" stroke-opacity="0"></use></g></g><g><use xlink:href="#isevhbBu7" opacity="1" fill="#310a62" fill-opacity="1"></use><g><use xlink:href="#isevhbBu7" opacity="1" fill-opacity="0" stroke="#000000" stroke-width="1" stroke-opacity="0"></use></g></g><g><use xlink:href="#au8rd09rP" opacity="1" fill="#310a62" fill-opacity="1"></use><g><use xlink:href="#au8rd09rP" opacity="1" fill-opacity="0" stroke="#000000" stroke-width="1" stroke-opacity="0"></use></g></g><g><use xlink:href="#c3k68Ysu5z" opacity="1" fill="#baafde" fill-opacity="1"></use><g><use xlink:href="#c3k68Ysu5z" opacity="1" fill-opacity="0" stroke="#000000" stroke-width="1" stroke-opacity="0"></use></g></g><g><use xlink:href="#c1gdhmhKz4" opacity="1" fill="#ffffff" fill-opacity="1"></use><g><use xlink:href="#c1gdhmhKz4" opacity="1" fill-opacity="0" stroke="#000000" stroke-width="1" stroke-opacity="0"></use></g></g><g><use xlink:href="#a1AoCfDsyG" opacity="1" fill="#baafde" fill-opacity="1"></use><g><use xlink:href="#a1AoCfDsyG" opacity="1" fill-opacity="0" stroke="#000000" stroke-width="1" stroke-opacity="0"></use></g></g><g><use xlink:href="#e12ZGX9VaJ" opacity="1" fill="#baafde" fill-opacity="1"></use><g><use xlink:href="#e12ZGX9VaJ" opacity="1" fill-opacity="0" stroke="#000000" stroke-width="1" stroke-opacity="0"></use></g></g><g><use xlink:href="#cmPKT4P58" opacity="1" fill="#ffffff" fill-opacity="1"></use><g><use xlink:href="#cmPKT4P58" opacity="1" fill-opacity="0" stroke="#000000" stroke-width="1" stroke-opacity="0"></use></g></g><g><use xlink:href="#j2BEYpe1Ch" opacity="1" fill="#ffffff" fill-opacity="1"></use><g><use xlink:href="#j2BEYpe1Ch" opacity="1" fill-opacity="0" stroke="#000000" stroke-width="1" stroke-opacity="0"></use></g></g><g><use xlink:href="#e4q3d3Mizu" opacity="1" fill="#ffffff" fill-opacity="1"></use><g><use xlink:href="#e4q3d3Mizu" opacity="1" fill-opacity="0" stroke="#000000" stroke-width="1" stroke-opacity="0"></use></g></g><g><use xlink:href="#cEBzMcgAr" opacity="1" fill="#4a168c" fill-opacity="1"></use><g><use xlink:href="#cEBzMcgAr" opacity="1" fill-opacity="0" stroke="#000000" stroke-width="1" stroke-opacity="0"></use></g></g><g><use xlink:href="#bkbH4phPq" opacity="1" fill="#4a168c" fill-opacity="1"></use><g><use xlink:href="#bkbH4phPq" opacity="1" fill-opacity="0" stroke="#000000" stroke-width="1" stroke-opacity="0"></use></g></g><g><use xlink:href="#f1U3mRdTkg" opacity="1" fill="#793620" fill-opacity="1"></use><g><use xlink:href="#f1U3mRdTkg" opacity="1" fill-opacity="0" stroke="#000000" stroke-width="1" stroke-opacity="0"></use></g></g><g><use xlink:href="#a151WSP9lQ" opacity="1" fill="#793620" fill-opacity="1"></use><g><use xlink:href="#a151WSP9lQ" opacity="1" fill-opacity="0" stroke="#000000" stroke-width="1" stroke-opacity="0"></use></g></g><g><use xlink:href="#b1HTWc2mB3" opacity="1" fill="#793620" fill-opacity="1"></use><g><use xlink:href="#b1HTWc2mB3" opacity="1" fill-opacity="0" stroke="#000000" stroke-width="1" stroke-opacity="0"></use></g></g><g><use xlink:href="#bohOZxtni" opacity="1" fill="#793620" fill-opacity="1"></use><g><use xlink:href="#bohOZxtni" opacity="1" fill-opacity="0" stroke="#000000" stroke-width="1" stroke-opacity="0"></use></g></g><g><use xlink:href="#ajANUu2F1" opacity="1" fill="#9d4b36" fill-opacity="1"></use><g><use xlink:href="#ajANUu2F1" opacity="1" fill-opacity="0" stroke="#000000" stroke-width="1" stroke-opacity="0"></use></g></g><g><use xlink:href="#i2IJgGiqDo" opacity="1" fill="#ffffff" fill-opacity="1"></use><g><use xlink:href="#i2IJgGiqDo" opacity="1" fill-opacity="0" stroke="#000000" stroke-width="1" stroke-opacity="0"></use></g></g><g><use xlink:href="#cg6WcGAHD" opacity="1" fill="#9d4b36" fill-opacity="1"></use><g><use xlink:href="#cg6WcGAHD" opacity="1" fill-opacity="0" stroke="#000000" stroke-width="1" stroke-opacity="0"></use></g></g><g><use xlink:href="#akPQGLyda" opacity="1" fill="#310a62" fill-opacity="1"></use><g><use xlink:href="#akPQGLyda" opacity="1" fill-opacity="0" stroke="#000000" stroke-width="1" stroke-opacity="0"></use></g></g><g><use xlink:href="#e1ulXnHlyJ" opacity="1" fill="#9d4b36" fill-opacity="1"></use><g><use xlink:href="#e1ulXnHlyJ" opacity="1" fill-opacity="0" stroke="#000000" stroke-width="1" stroke-opacity="0"></use></g></g><g><use xlink:href="#b2Jw4PISv" opacity="1" fill="#9d4b36" fill-opacity="1"></use><g><use xlink:href="#b2Jw4PISv" opacity="1" fill-opacity="0" stroke="#000000" stroke-width="1" stroke-opacity="0"></use></g></g><g><use xlink:href="#d5gV8wycvy" opacity="1" fill="#9d4b36" fill-opacity="1"></use><g><use xlink:href="#d5gV8wycvy" opacity="1" fill-opacity="0" stroke="#000000" stroke-width="1" stroke-opacity="0"></use></g></g><g><use xlink:href="#fpRNFm0g" opacity="1" fill="#4a168c" fill-opacity="1"></use><g><use xlink:href="#fpRNFm0g" opacity="1" fill-opacity="0" stroke="#000000" stroke-width="1" stroke-opacity="0"></use></g></g><g><use xlink:href="#boM4z1D6A" opacity="1" fill="#4a168c" fill-opacity="1"></use><g><use xlink:href="#boM4z1D6A" opacity="1" fill-opacity="0" stroke="#000000" stroke-width="1" stroke-opacity="0"></use></g></g><g><use xlink:href="#b4yPk4hj9j" opacity="1" fill="#4a168c" fill-opacity="1"></use><g><use xlink:href="#b4yPk4hj9j" opacity="1" fill-opacity="0" stroke="#000000" stroke-width="1" stroke-opacity="0"></use></g></g><g><use xlink:href="#cESh9swTn" opacity="1" fill="#7b60d7" fill-opacity="1"></use><g><use xlink:href="#cESh9swTn" opacity="1" fill-opacity="0" stroke="#000000" stroke-width="1" stroke-opacity="0"></use></g></g><g><use xlink:href="#bddJ9gKY" opacity="1" fill="#26285d" fill-opacity="1"></use><g><use xlink:href="#bddJ9gKY" opacity="1" fill-opacity="0" stroke="#000000" stroke-width="1" stroke-opacity="0"></use></g></g><g><use xlink:href="#b5p9mDjzRl" opacity="1" fill="#310a62" fill-opacity="1"></use><g><use xlink:href="#b5p9mDjzRl" opacity="1" fill-opacity="0" stroke="#000000" stroke-width="1" stroke-opacity="0"></use></g></g><g><use xlink:href="#fdERd1xty" opacity="1" fill="#7b60d7" fill-opacity="1"></use><g><use xlink:href="#fdERd1xty" opacity="1" fill-opacity="0" stroke="#000000" stroke-width="1" stroke-opacity="0"></use></g></g><g><use xlink:href="#b368ICHw67" opacity="1" fill="#7b60d7" fill-opacity="1"></use><g><use xlink:href="#b368ICHw67" opacity="1" fill-opacity="0" stroke="#000000" stroke-width="1" stroke-opacity="0"></use></g></g><g><use xlink:href="#b1OxVkvy29" opacity="1" fill="#7b60d7" fill-opacity="1"></use><g><use xlink:href="#b1OxVkvy29" opacity="1" fill-opacity="0" stroke="#000000" stroke-width="1" stroke-opacity="0"></use></g></g><g><use xlink:href="#d5BlV6LtGO" opacity="1" fill="#310a62" fill-opacity="1"></use><g><use xlink:href="#d5BlV6LtGO" opacity="1" fill-opacity="0" stroke="#000000" stroke-width="1" stroke-opacity="0"></use></g></g><g><use xlink:href="#b1mqLeAHdq" opacity="1" fill="#310a62" fill-opacity="1"></use><g><use xlink:href="#b1mqLeAHdq" opacity="1" fill-opacity="0" stroke="#000000" stroke-width="1" stroke-opacity="0"></use></g></g><g><use xlink:href="#c1eciG2Jk6" opacity="1" fill="#310a62" fill-opacity="1"></use><g><use xlink:href="#c1eciG2Jk6" opacity="1" fill-opacity="0" stroke="#000000" stroke-width="1" stroke-opacity="0"></use></g></g><g><use xlink:href="#d9TDLl8Vo" opacity="1" fill="#e66f64" fill-opacity="1"></use><g><use xlink:href="#d9TDLl8Vo" opacity="1" fill-opacity="0" stroke="#000000" stroke-width="1" stroke-opacity="0"></use></g></g><g><use xlink:href="#a2LoYOrW3D" opacity="1" fill="#e66f64" fill-opacity="1"></use><g><use xlink:href="#a2LoYOrW3D" opacity="1" fill-opacity="0" stroke="#000000" stroke-width="1" stroke-opacity="0"></use></g></g><g><use xlink:href="#bJZroDWuM" opacity="1" fill="#4a168c" fill-opacity="1"></use><g><use xlink:href="#bJZroDWuM" opacity="1" fill-opacity="0" stroke="#000000" stroke-width="1" stroke-opacity="0"></use></g></g><g><use xlink:href="#d4sbRLpYdn" opacity="1" fill="#4a168c" fill-opacity="1"></use><g><use xlink:href="#d4sbRLpYdn" opacity="1" fill-opacity="0" stroke="#000000" stroke-width="1" stroke-opacity="0"></use></g></g><g><use xlink:href="#bNfKXtmyJ" opacity="1" fill="#f68c82" fill-opacity="1"></use><g><use xlink:href="#bNfKXtmyJ" opacity="1" fill-opacity="0" stroke="#000000" stroke-width="1" stroke-opacity="0"></use></g></g><g><use xlink:href="#a50h840WX" opacity="1" fill="#f68c82" fill-opacity="1"></use><g><use xlink:href="#a50h840WX" opacity="1" fill-opacity="0" stroke="#000000" stroke-width="1" stroke-opacity="0"></use></g></g><g><use xlink:href="#jqnwjTqaA" opacity="1" fill="#4a168c" fill-opacity="1"></use><g><use xlink:href="#jqnwjTqaA" opacity="1" fill-opacity="0" stroke="#000000" stroke-width="1" stroke-opacity="0"></use></g></g><g><use xlink:href="#b2YOQAlPcq" opacity="1" fill="#baafde" fill-opacity="1"></use><g><use xlink:href="#b2YOQAlPcq" opacity="1" fill-opacity="0" stroke="#000000" stroke-width="1" stroke-opacity="0"></use></g></g><g><use xlink:href="#d4b17I7v2h" opacity="1" fill="#baafde" fill-opacity="1"></use><g><use xlink:href="#d4b17I7v2h" opacity="1" fill-opacity="0" stroke="#000000" stroke-width="1" stroke-opacity="0"></use></g></g><g><use xlink:href="#c57Sf8O2td" opacity="1" fill="#baafde" fill-opacity="1"></use><g><use xlink:href="#c57Sf8O2td" opacity="1" fill-opacity="0" stroke="#000000" stroke-width="1" stroke-opacity="0"></use></g></g><g><use xlink:href="#bDgOPB8m6" opacity="1" fill="#baafde" fill-opacity="1"></use><g><use xlink:href="#bDgOPB8m6" opacity="1" fill-opacity="0" stroke="#000000" stroke-width="1" stroke-opacity="0"></use></g></g><g><use xlink:href="#i34GJLVxD" opacity="1" fill="#ffffff" fill-opacity="1"></use><g><use xlink:href="#i34GJLVxD" opacity="1" fill-opacity="0" stroke="#000000" stroke-width="1" stroke-opacity="0"></use></g></g><g><use xlink:href="#a27JmJt614" opacity="1" fill="#ffffff" fill-opacity="1"></use><g><use xlink:href="#a27JmJt614" opacity="1" fill-opacity="0" stroke="#000000" stroke-width="1" stroke-opacity="0"></use></g></g><g><use xlink:href="#lruN0PNs2" opacity="1" fill="#4a168c" fill-opacity="1"></use><g><use xlink:href="#lruN0PNs2" opacity="1" fill-opacity="0" stroke="#000000" stroke-width="1" stroke-opacity="0"></use></g></g><g><use xlink:href="#a6aHpzgr3" opacity="1" fill="#e66f64" fill-opacity="1"></use><g><use xlink:href="#a6aHpzgr3" opacity="1" fill-opacity="0" stroke="#000000" stroke-width="1" stroke-opacity="0"></use></g></g><g><use xlink:href="#a1SkjOknM" opacity="1" fill="#f68c82" fill-opacity="1"></use><g><use xlink:href="#a1SkjOknM" opacity="1" fill-opacity="0" stroke="#000000" stroke-width="1" stroke-opacity="0"></use></g></g><g><use xlink:href="#a2g1rQnGVV" opacity="1" fill="#ffffff" fill-opacity="1"></use><g><use xlink:href="#a2g1rQnGVV" opacity="1" fill-opacity="0" stroke="#000000" stroke-width="1" stroke-opacity="0"></use></g></g><g><use xlink:href="#a10DHbNSSB" opacity="1" fill="#f68c82" fill-opacity="1"></use><g><use xlink:href="#a10DHbNSSB" opacity="1" fill-opacity="0" stroke="#000000" stroke-width="1" stroke-opacity="0"></use></g></g><g><use xlink:href="#dI80khigK" opacity="1" fill="#baafde" fill-opacity="1"></use><g><use xlink:href="#dI80khigK" opacity="1" fill-opacity="0" stroke="#000000" stroke-width="1" stroke-opacity="0"></use></g></g><g><use xlink:href="#a2RSC8lnRE" opacity="1" fill="#f68c82" fill-opacity="1"></use><g><use xlink:href="#a2RSC8lnRE" opacity="1" fill-opacity="0" stroke="#000000" stroke-width="1" stroke-opacity="0"></use></g></g><g><use xlink:href="#bIXoDXDad" opacity="1" fill="#7b60d7" fill-opacity="1"></use><g><use xlink:href="#bIXoDXDad" opacity="1" fill-opacity="0" stroke="#000000" stroke-width="1" stroke-opacity="0"></use></g></g><g><use xlink:href="#a4xZdF6ldy" opacity="1" fill="#7b60d7" fill-opacity="1"></use><g><use xlink:href="#a4xZdF6ldy" opacity="1" fill-opacity="0" stroke="#000000" stroke-width="1" stroke-opacity="0"></use></g></g><g><use xlink:href="#e6IKSBGvs7" opacity="1" fill="#e66f64" fill-opacity="1"></use><g><use xlink:href="#e6IKSBGvs7" opacity="1" fill-opacity="0" stroke="#000000" stroke-width="1" stroke-opacity="0"></use></g></g><g><use xlink:href="#d2qFdXV48" opacity="1" fill="#e66f64" fill-opacity="1"></use><g><use xlink:href="#d2qFdXV48" opacity="1" fill-opacity="0" stroke="#000000" stroke-width="1" stroke-opacity="0"></use></g></g><g><use xlink:href="#l4DK6TeoP1" opacity="1" fill="#e66f64" fill-opacity="1"></use><g><use xlink:href="#l4DK6TeoP1" opacity="1" fill-opacity="0" stroke="#000000" stroke-width="1" stroke-opacity="0"></use></g></g><g><use xlink:href="#c1m4zLY4I3" opacity="1" fill="#e66f64" fill-opacity="1"></use><g><use xlink:href="#c1m4zLY4I3" opacity="1" fill-opacity="0" stroke="#000000" stroke-width="1" stroke-opacity="0"></use></g></g><g><use xlink:href="#b4YkHWnlK" opacity="1" fill="#e66f64" fill-opacity="1"></use><g><use xlink:href="#b4YkHWnlK" opacity="1" fill-opacity="0" stroke="#000000" stroke-width="1" stroke-opacity="0"></use></g></g></g></g></svg>