<?xml version="1.0" encoding="UTF-8" standalone="no"?>
<!DOCTYPE svg PUBLIC "-//W3C//DTD SVG 1.1//EN" "http://www.w3.org/Graphics/SVG/1.1/DTD/svg11.dtd">
<svg version="1.1" xmlns="http://www.w3.org/2000/svg" xmlns:xlink="http://www.w3.org/1999/xlink" preserveAspectRatio="xMidYMid meet" viewBox="0 0 640 640" width="640" height="640"><defs><path d="M2802.46 3028.33C2743.82 3028.33 2711.24 3028.33 2704.73 3028.33C2694.2 3028.33 2685.66 3019.8 2685.66 3009.27C2685.66 2983.8 2685.66 2780.05 2685.66 2754.58C2685.66 2744.05 2694.2 2735.51 2704.73 2735.51C2733.32 2735.51 2962.02 2735.51 2990.61 2735.51C3001.14 2735.51 3009.67 2744.05 3009.67 2754.58C3009.67 2780.05 3009.67 2983.8 3009.67 3009.27C3009.67 3019.8 3001.14 3028.33 2990.61 3028.33C2984.09 3028.33 2951.51 3028.33 2892.87 3028.33" id="fbFxCw44s"></path><path d="M2765.65 2663.35C2765.65 2618.13 2802.44 2581.33 2847.67 2581.33C2892.89 2581.33 2929.69 2618.13 2929.69 2663.35C2929.69 2668.16 2929.69 2692.22 2929.69 2735.51L2974.69 2735.51C2974.69 2692.22 2974.69 2668.16 2974.69 2663.35C2974.69 2593.31 2917.7 2536.33 2847.67 2536.33C2777.63 2536.33 2720.65 2593.31 2720.65 2663.35C2720.65 2668.16 2720.65 2692.22 2720.65 2735.51L2765.65 2735.51C2765.65 2692.22 2765.65 2668.16 2765.65 2663.35Z" id="c9cDdQpaM8"></path><path d="M2847.67 2801.01C2822.94 2801.01 2802.9 2821.06 2802.9 2845.78C2802.9 2862.72 2812.31 2877.47 2826.18 2885.07C2825.86 2887.74 2824.23 2901.09 2821.29 2925.13L2874.04 2925.13C2871.1 2901.09 2869.47 2887.74 2869.15 2885.07C2883.03 2877.46 2892.44 2862.72 2892.44 2845.78C2892.44 2821.06 2872.39 2801.01 2847.67 2801.01Z" id="a5chOVlxCr"></path><path d="M2838.44 3031.72C2837.07 3027.91 2838.2 3023.49 2841.25 3020.82C2844.53 3017.95 2849.42 3017.56 2853.12 3019.85C2856.64 3022.02 2858.49 3026.31 2857.64 3030.36C2856.68 3034.94 2852.53 3038.33 2847.85 3038.33C2843.68 3038.33 2839.86 3035.63 2838.44 3031.72Z" id="c1yWoLRta9"></path><path d="M2958.09 2797.01C2958.09 2795.19 2958.09 2780.62 2958.09 2778.8C2958.09 2773.28 2962.56 2768.8 2968.09 2768.8C2973.61 2768.8 2978.09 2773.28 2978.09 2778.8C2978.09 2780.62 2978.09 2795.19 2978.09 2797.01C2978.09 2802.53 2973.61 2807.01 2968.09 2807.01C2962.56 2807.01 2958.09 2802.53 2958.09 2797.01Z" id="e1f2GYii1q"></path><path d="M2717.25 2797.01C2717.25 2795.19 2717.25 2780.62 2717.25 2778.8C2717.25 2773.28 2721.72 2768.8 2727.25 2768.8C2732.77 2768.8 2737.25 2773.28 2737.25 2778.8C2737.25 2780.62 2737.25 2795.19 2737.25 2797.01C2737.25 2802.53 2732.77 2807.01 2727.25 2807.01C2721.72 2807.01 2717.25 2802.53 2717.25 2797.01Z" id="ef07LfYp4"></path><path d="M2958.09 2985.04C2958.09 2983.22 2958.09 2968.66 2958.09 2966.84C2958.09 2961.31 2962.56 2956.84 2968.09 2956.84C2973.61 2956.84 2978.09 2961.31 2978.09 2966.84C2978.09 2968.66 2978.09 2983.22 2978.09 2985.04C2978.09 2990.56 2973.61 2995.04 2968.09 2995.04C2962.56 2995.04 2958.09 2990.56 2958.09 2985.04Z" id="dl0Yh9WmO"></path><path d="M2717.25 2985.04C2717.25 2983.22 2717.25 2968.66 2717.25 2966.84C2717.25 2961.31 2721.72 2956.84 2727.25 2956.84C2732.77 2956.84 2737.25 2961.31 2737.25 2966.84C2737.25 2968.66 2737.25 2983.22 2737.25 2985.04C2737.25 2990.56 2732.77 2995.04 2727.25 2995.04C2721.72 2995.04 2717.25 2990.56 2717.25 2985.04Z" id="kUBNB471i"></path><path d="M2802.9 2972.83C2797.38 2972.83 2792.9 2968.35 2792.9 2962.83C2792.9 2957.31 2797.38 2952.83 2802.9 2952.83C2811.85 2952.83 2883.48 2952.83 2892.44 2952.83C2897.96 2952.83 2902.44 2957.31 2902.44 2962.83C2902.44 2968.35 2897.96 2972.83 2892.44 2972.83C2874.53 2972.83 2811.85 2972.83 2802.9 2972.83Z" id="bp6ilrDGR"></path><path d="M2821.3 2935.13C2818.43 2935.13 2815.71 2933.91 2813.81 2931.76C2811.91 2929.62 2811.02 2926.76 2811.37 2923.92C2811.78 2920.54 2815.08 2893.49 2815.5 2890.11C2801.41 2879.88 2792.9 2863.46 2792.9 2845.78C2792.9 2815.58 2817.47 2791.01 2847.67 2791.01C2877.87 2791.01 2902.44 2815.58 2902.44 2845.78C2902.44 2863.46 2893.93 2879.88 2879.84 2890.11C2880.25 2893.49 2883.55 2920.54 2883.97 2923.92C2884.31 2926.76 2883.42 2929.62 2881.53 2931.76C2879.63 2933.91 2876.9 2935.13 2874.04 2935.13C2863.49 2935.13 2826.57 2935.13 2821.3 2935.13ZM2832.59 2915.13L2862.74 2915.13C2860.63 2897.82 2859.46 2888.2 2859.22 2886.28C2858.73 2882.22 2860.76 2878.27 2864.34 2876.3C2875.5 2870.19 2882.44 2858.49 2882.44 2845.78C2882.44 2826.61 2866.84 2811.01 2847.67 2811.01C2828.49 2811.01 2812.9 2826.61 2812.9 2845.78C2812.9 2858.49 2819.83 2870.18 2830.99 2876.3C2834.58 2878.27 2836.61 2882.22 2836.11 2886.28C2835.64 2890.13 2834.47 2899.75 2832.59 2915.13Z" id="d2hBX87po"></path><path d="M2984.69 2725.51C2984.69 2688.21 2984.69 2667.5 2984.69 2663.35C2984.69 2587.8 2923.22 2526.33 2847.67 2526.33C2772.11 2526.33 2710.65 2587.8 2710.65 2663.35C2710.65 2667.5 2710.65 2688.22 2710.65 2725.51C2707.1 2725.51 2705.12 2725.51 2704.73 2725.51C2688.7 2725.51 2675.66 2738.55 2675.66 2754.58C2675.66 2780.05 2675.66 2983.8 2675.66 3009.27C2675.66 3025.29 2688.7 3038.33 2704.73 3038.33C2714.5 3038.33 2792.69 3038.33 2802.46 3038.33C2807.98 3038.33 2812.46 3033.86 2812.46 3028.33C2812.46 3022.81 2807.98 3018.33 2802.46 3018.33C2792.69 3018.33 2714.5 3018.33 2704.73 3018.33C2699.73 3018.33 2695.66 3014.27 2695.66 3009.27C2695.66 2983.8 2695.66 2780.05 2695.66 2754.58C2695.66 2749.58 2699.73 2745.51 2704.73 2745.51C2733.31 2745.51 2962.02 2745.51 2990.61 2745.51C2995.61 2745.51 2999.67 2749.58 2999.67 2754.58C2999.67 2780.05 2999.67 2983.8 2999.67 3009.27C2999.67 3014.27 2995.61 3018.33 2990.61 3018.33C2980.83 3018.33 2902.65 3018.33 2892.87 3018.33C2887.35 3018.33 2882.87 3022.81 2882.87 3028.33C2882.87 3033.86 2887.35 3038.33 2892.87 3038.33C2902.65 3038.33 2980.83 3038.33 2990.61 3038.33C3006.63 3038.33 3019.67 3025.29 3019.67 3009.27C3019.67 2983.8 3019.67 2780.05 3019.67 2754.58C3019.67 2738.55 3006.63 2725.51 2990.61 2725.51C2989.82 2725.51 2987.84 2725.51 2984.69 2725.51ZM2919.69 2725.51L2775.65 2725.51C2775.65 2688.21 2775.65 2667.5 2775.65 2663.35C2775.65 2623.64 2807.96 2591.33 2847.67 2591.33C2887.38 2591.33 2919.69 2623.64 2919.69 2663.35C2919.69 2671.64 2919.69 2692.36 2919.69 2725.51ZM2939.69 2663.35C2939.69 2612.61 2898.41 2571.33 2847.67 2571.33C2796.93 2571.33 2755.65 2612.61 2755.65 2663.35C2755.65 2667.5 2755.65 2688.22 2755.65 2725.51L2730.65 2725.51C2730.65 2688.22 2730.65 2667.5 2730.65 2663.35C2730.65 2598.83 2783.14 2546.33 2847.67 2546.33C2912.19 2546.33 2964.69 2598.83 2964.69 2663.35C2964.69 2667.5 2964.69 2688.22 2964.69 2725.51L2939.69 2725.51C2939.69 2688.22 2939.69 2667.5 2939.69 2663.35Z" id="d77bh3Fgn4"></path><path d="M413.14 175.85C401.66 183.25 387.76 185.73 374.42 182.77C342.86 175.76 309.84 180.55 281.71 195.81C262.81 206.08 239.78 204.29 222.14 191.98C210.42 183.82 196.82 177.96 181.88 175.21C126.44 164.99 72.54 201.76 61.88 257.12C50.99 313.72 88.51 368.13 145.08 378.2C158.9 380.67 172.57 380.25 185.47 377.39C206.4 372.74 228.28 380.51 241.79 397.16C250.32 407.68 260.6 417.06 272.55 424.85C334.28 465.13 416.97 447.74 457.25 386.01C457.3 385.95 457.34 385.88 457.38 385.82C464.76 374.47 476.23 366.38 489.5 363.7C508.85 359.79 527.3 350.29 542.26 335.2C581.63 295.47 581.96 230.83 542.97 190.72C508.02 154.78 453.49 149.82 413.14 175.85Z" id="cbDk7Gkhd"></path><linearGradient id="gradienta5lWeXEUir" gradientUnits="userSpaceOnUse" x1="235.92" y1="303" x2="893.67" y2="303"><stop style="stop-color: #fff0d5;stop-opacity: 1" offset="0.07011211%"></stop><stop style="stop-color: #ffdfff;stop-opacity: 1" offset="51.12%"></stop><stop style="stop-color: #d9ceff;stop-opacity: 1" offset="100%"></stop></linearGradient><path d="M516 406.31C516 414.59 509.28 421.31 501 421.31C464 421.31 168 421.31 131 421.31C122.72 421.31 116 414.59 116 406.31C116 380.88 116 177.48 116 152.06C116 143.78 122.72 137.06 131 137.06C168 137.06 464 137.06 501 137.06C509.28 137.06 516 143.78 516 152.06C516 202.91 516 380.88 516 406.31Z" id="fCKm08oiz"></path><path d="M372.71 515.02L259.29 515.02L281.97 425.11L350.03 425.11L372.71 515.02Z" id="c2gPO8Eeu"></path><path d="M357.93 456.41L274.07 456.41L281.97 425.11L350.03 425.11L357.93 456.41Z" id="esRHwK2lM"></path><path d="M516 427.31C516 435.59 509.28 442.31 501 442.31C464 442.31 168 442.31 131 442.31C122.72 442.31 116 435.59 116 427.31C116 401.88 116 198.48 116 173.06C116 164.78 122.72 158.06 131 158.06C168 158.06 464 158.06 501 158.06C509.28 158.06 516 164.78 516 173.06C516 223.91 516 401.88 516 427.31Z" id="cW2USvKyR"></path><path d="M432.28 158.06L432.28 442.31C473.51 442.31 496.42 442.31 501 442.31C509.28 442.31 516 435.59 516 427.31C516 401.88 516 198.48 516 173.06C516 164.78 509.28 158.06 501 158.06C491.84 158.06 468.93 158.06 432.28 158.06Z" id="a2Vj3MNfLE"></path><path d="M316 245.55L230 318.19C242 318.19 248.67 318.19 250 318.19C251.66 318.19 253 319.53 253 321.19C253 326.51 253 353.13 253 401.04L379 401.04C379 353.13 379 326.51 379 321.19C379 319.53 380.35 318.19 382 318.19C383.34 318.19 390 318.19 402 318.19L316 245.55Z" id="b1GY1jK7ei"></path><path d="M398.78 322.01C393.26 317.34 365.67 294.04 316 252.1C266.34 294.04 238.75 317.34 233.23 322.01C231.12 323.79 227.96 323.52 226.18 321.41C224.4 319.3 224.67 316.15 226.78 314.36C235.38 307.1 304.18 248.99 312.78 241.73C314.64 240.16 317.37 240.16 319.23 241.73C327.83 248.99 396.63 307.1 405.23 314.36C407.34 316.15 407.6 319.3 405.82 321.41C404.83 322.58 403.42 323.19 402 323.19C400.86 323.19 399.72 322.8 398.78 322.01Z" id="cUajssL1P"></path><path d="M320.33 401.04L278.33 401.04C278.33 360.44 278.33 337.88 278.33 333.37C278.33 330.61 280.57 328.37 283.33 328.37C286.53 328.37 312.14 328.37 315.33 328.37C318.1 328.37 320.33 330.61 320.33 333.37C320.33 342.39 320.33 364.95 320.33 401.04Z" id="b13XtMoE48"></path><path d="M345.26 328.37C338.27 328.37 332.6 334.04 332.6 341.04C332.6 348.03 338.27 353.71 345.26 353.71C352.26 353.71 357.93 348.03 357.93 341.04C357.93 334.04 352.26 328.37 345.26 328.37Z" id="cGQSuTO4"></path><path d="M516 206.23C516 186.33 516 175.27 516 173.06C516 164.78 509.29 158.06 501 158.06C464 158.06 168 158.06 131 158.06C122.72 158.06 116 164.78 116 173.06C116 175.27 116 186.33 116 206.23L516 206.23Z" id="bdE60rbWS"></path><path d="M116 391.92C116 413.15 116 424.95 116 427.31C116 435.59 122.72 442.31 131 442.31C168 442.31 464 442.31 501 442.31C509.29 442.31 516 435.59 516 427.31C516 424.95 516 413.15 516 391.92L116 391.92Z" id="cbcaQIILT"></path><path d="M159.08 182.22C159.08 182.21 159.08 182.09 159.08 182.07C159.08 179.31 156.85 177.07 154.08 177.07C151.32 177.07 149.08 179.31 149.08 182.07C149.08 182.09 149.08 182.21 149.08 182.22C149.08 184.98 151.32 187.22 154.08 187.22C156.85 187.22 159.08 184.98 159.08 182.22Z" id="d16YEzboIQ"></path><path d="M178.41 182.22C178.41 182.21 178.41 182.09 178.41 182.07C178.41 179.31 176.17 177.07 173.41 177.07C170.65 177.07 168.41 179.31 168.41 182.07C168.41 182.09 168.41 182.21 168.41 182.22C168.41 184.98 170.65 187.22 173.41 187.22C176.17 187.22 178.41 184.98 178.41 182.22Z" id="dqyKCFb98"></path><path d="M197.73 182.22C197.73 182.21 197.73 182.09 197.73 182.07C197.73 179.31 195.49 177.07 192.73 177.07C189.97 177.07 187.73 179.31 187.73 182.07C187.73 182.09 187.73 182.21 187.73 182.22C187.73 184.98 189.97 187.22 192.73 187.22C195.49 187.22 197.73 184.98 197.73 182.22Z" id="b6mkxCgsQ"></path><path d="M131 153.06C119.97 153.06 111 162.03 111 173.06C111 198.49 111 401.88 111 427.31C111 438.34 119.97 447.31 131 447.31C140.35 447.31 187.09 447.31 271.22 447.31L255.4 510.01C246.2 510.01 241.09 510.01 240.07 510.01C237.31 510.01 235.07 512.25 235.07 515.01C235.07 517.77 237.31 520.01 240.07 520.01C255.25 520.01 376.75 520.01 391.94 520.01C394.7 520.01 396.94 517.77 396.94 515.01C396.94 512.25 394.7 510.01 391.94 510.01C390.91 510.01 385.8 510.01 376.61 510.01L360.79 447.31C381.62 447.31 393.19 447.31 395.51 447.31C398.27 447.31 400.51 445.07 400.51 442.31C400.51 439.55 398.27 437.31 395.51 437.31C369.06 437.31 157.45 437.31 131 437.31C125.49 437.31 121 432.82 121 427.31C121 425.28 121 415.15 121 396.92L511 396.92C511 415.15 511 425.28 511 427.31C511 432.82 506.52 437.31 501 437.31C493.21 437.31 430.84 437.31 423.05 437.31C420.29 437.31 418.05 439.55 418.05 442.31C418.05 445.07 420.29 447.31 423.05 447.31C430.84 447.31 493.21 447.31 501 447.31C512.03 447.31 521 438.34 521 427.31C521 401.88 521 198.49 521 173.06C521 162.03 512.03 153.06 501 153.06C427 153.06 168 153.06 131 153.06ZM366.29 510.01L265.71 510.01L281.53 447.31L350.47 447.31L366.29 510.01ZM121 173.06C121 167.55 125.49 163.06 131 163.06C168 163.06 464 163.06 501 163.06C506.52 163.06 511 167.55 511 173.06C511 174.94 511 184.33 511 201.23C290.53 201.23 168.04 201.23 143.54 201.23C140.78 201.23 138.54 203.47 138.54 206.23C138.54 208.99 140.78 211.23 143.54 211.23C168.04 211.23 290.53 211.23 511 211.23L511 386.92L121 386.92C121 258.61 121 187.32 121 173.06Z" id="b3aeLlsAE"></path><path d="M149.71 266.27C146.94 266.27 144.7 264.02 144.7 261.26C144.7 258.49 146.94 256.25 149.71 256.25C153.17 256.25 180.84 256.25 184.3 256.25C187.06 256.25 189.3 258.49 189.3 261.26C189.3 264.02 187.06 266.27 184.3 266.27C177.38 266.27 153.17 266.27 149.71 266.27Z" id="bixHZDp2c"></path><path d="M454.71 301.84C451.94 301.84 449.7 299.59 449.7 296.83C449.7 294.06 451.94 291.82 454.71 291.82C458.17 291.82 485.84 291.82 489.3 291.82C492.06 291.82 494.3 294.06 494.3 296.83C494.3 299.59 492.06 301.84 489.3 301.84C482.38 301.84 458.17 301.84 454.71 301.84Z" id="e2BhDZKXXt"></path><path d="M454.71 323.19C451.94 323.19 449.7 320.95 449.7 318.19C449.7 315.42 451.94 313.18 454.71 313.18C458.17 313.18 485.84 313.18 489.3 313.18C492.06 313.18 494.3 315.42 494.3 318.19C494.3 320.95 492.06 323.19 489.3 323.19C482.38 323.19 458.17 323.19 454.71 323.19Z" id="e5ILGhI8CP"></path><path d="M454.71 344.55C451.94 344.55 449.7 342.31 449.7 339.54C449.7 336.78 451.94 334.54 454.71 334.54C458.17 334.54 485.84 334.54 489.3 334.54C492.06 334.54 494.3 336.78 494.3 339.54C494.3 342.31 492.06 344.55 489.3 344.55C482.38 344.55 458.17 344.55 454.71 344.55Z" id="b7p8eCcmeW"></path><path d="M149.71 239.48C146.94 239.48 144.7 237.24 144.7 234.47C144.7 231.71 146.94 229.47 149.71 229.47C157.37 229.47 218.64 229.47 226.3 229.47C229.06 229.47 231.3 231.71 231.3 234.47C231.3 237.24 229.06 239.48 226.3 239.48C210.98 239.48 157.37 239.48 149.71 239.48Z" id="d1k8gS24r2"></path><path d="M149.71 284.05C146.94 284.05 144.7 281.81 144.7 279.04C144.7 276.28 146.94 274.04 149.71 274.04C153.17 274.04 180.84 274.04 184.3 274.04C187.06 274.04 189.3 276.28 189.3 279.04C189.3 281.81 187.06 284.05 184.3 284.05C177.38 284.05 153.17 284.05 149.71 284.05Z" id="d4tkkHcpHd"></path><path d="M149.71 301.84C146.94 301.84 144.7 299.59 144.7 296.83C144.7 294.06 146.94 291.82 149.71 291.82C153.17 291.82 180.84 291.82 184.3 291.82C187.06 291.82 189.3 294.06 189.3 296.83C189.3 299.59 187.06 301.84 184.3 301.84C177.38 301.84 153.17 301.84 149.71 301.84Z" id="b1v8ddZB5U"></path><path d="M455.18 228.1C452.08 228.1 449.57 230.6 449.57 233.7C449.57 236.79 452.08 239.3 455.18 239.3C458.27 239.3 460.78 236.79 460.78 233.7C460.78 230.6 458.27 228.1 455.18 228.1Z" id="b87lcYMijd"></path><path d="M455.18 248.05C452.08 248.05 449.57 250.55 449.57 253.65C449.57 256.74 452.08 259.25 455.18 259.25C458.27 259.25 460.78 256.74 460.78 253.65C460.78 250.55 458.27 248.05 455.18 248.05Z" id="bpEaxtmDD"></path><path d="M455.18 267.99C452.08 267.99 449.57 270.5 449.57 273.6C449.57 276.69 452.08 279.2 455.18 279.2C458.27 279.2 460.78 276.69 460.78 273.6C460.78 270.5 458.27 267.99 455.18 267.99Z" id="aaRck3m3"></path><path d="M161.8 322.9C152.64 322.9 145.18 330.35 145.18 339.51C145.18 344.03 147 348.13 149.94 351.13C147 354.13 145.18 358.22 145.18 362.74C145.18 365.5 147.42 367.74 150.18 367.74C152.94 367.74 155.18 365.5 155.18 362.74C155.18 359.09 158.15 356.13 161.8 356.13C165.44 356.13 168.41 359.09 168.41 362.74C168.41 365.5 170.65 367.74 173.41 367.74C176.17 367.74 178.41 365.5 178.41 362.74C178.41 358.22 176.59 354.13 173.65 351.13C176.59 348.13 178.41 344.03 178.41 339.51C178.41 330.35 170.96 322.9 161.8 322.9ZM168.41 339.51C168.41 343.16 165.44 346.13 161.8 346.13C158.15 346.13 155.18 343.16 155.18 339.51C155.18 335.87 158.15 332.9 161.8 332.9C165.44 332.9 168.41 335.87 168.41 339.51Z" id="fegCM1hny"></path><path d="M455.78 113.02C455.78 109.7 453.08 107.01 449.76 107.01C447 107.01 444.76 104.77 444.76 102.01C444.76 99.24 447 97.01 449.76 97.01C453.08 97.01 455.78 94.31 455.78 90.99C455.78 88.23 458.02 85.99 460.78 85.99C463.54 85.99 465.78 88.23 465.78 90.99C465.78 94.31 468.48 97.01 471.79 97.01C474.56 97.01 476.79 99.24 476.79 102.01C476.79 104.77 474.56 107.01 471.79 107.01C468.48 107.01 465.78 109.7 465.78 113.02C465.78 115.78 463.54 118.02 460.78 118.02C458.02 118.02 455.78 115.78 455.78 113.02Z" id="c5wh1AfZTX"></path><path d="M220.45 483.03C220.45 479.71 217.75 477.01 214.43 477.01C211.67 477.01 209.43 474.77 209.43 472.01C209.43 469.25 211.67 467.01 214.43 467.01C217.75 467.01 220.45 464.31 220.45 460.99C220.45 458.23 222.68 455.99 225.45 455.99C228.21 455.99 230.45 458.23 230.45 460.99C230.45 464.31 233.14 467.01 236.46 467.01C239.22 467.01 241.46 469.25 241.46 472.01C241.46 474.77 239.22 477.01 236.46 477.01C233.14 477.01 230.45 479.71 230.45 483.03C230.45 485.79 228.21 488.03 225.45 488.03C222.68 488.03 220.45 485.79 220.45 483.03Z" id="b6QuYsBdw"></path><path d="M162 497.71C162 494.39 159.3 491.69 155.99 491.69C153.23 491.69 150.99 489.45 150.99 486.69C150.99 483.93 153.23 481.69 155.99 481.69C159.3 481.69 162 478.99 162 475.67C162 472.91 164.24 470.67 167 470.67C169.76 470.67 172 472.91 172 475.67C172 478.99 174.7 481.69 178.02 481.69C180.78 481.69 183.02 483.93 183.02 486.69C183.02 489.45 180.78 491.69 178.02 491.69C174.7 491.69 172 494.39 172 497.71C172 500.47 169.76 502.71 167 502.71C164.24 502.71 162 500.47 162 497.71Z" id="b1blQjGZOs"></path><path d="M402.75 129.53C401.65 128.43 392.85 119.64 391.75 118.54C389.8 116.58 389.8 113.42 391.75 111.47C392.85 110.37 401.65 101.57 402.75 100.47C404.7 98.52 407.87 98.52 409.82 100.47C410.92 101.57 419.71 110.37 420.81 111.47C422.77 113.42 422.77 116.58 420.81 118.54C419.71 119.64 410.92 128.43 409.82 129.53C408.84 130.51 407.56 131 406.28 131C405 131 403.73 130.51 402.75 129.53ZM402.36 115L406.28 118.92L410.21 115L406.28 111.08L402.36 115Z" id="cQruei8rT"></path><path d="M491.25 494.74C463.98 494.74 448.83 494.74 445.8 494.74C440.9 494.74 436.93 490.77 436.93 485.87C436.93 474.02 436.93 379.26 436.93 367.41C436.93 362.52 440.9 358.55 445.8 358.55C459.09 358.55 565.46 358.55 578.76 358.55C583.66 358.55 587.63 362.52 587.63 367.41C587.63 379.26 587.63 474.02 587.63 485.87C587.63 490.77 583.66 494.74 578.76 494.74C575.73 494.74 560.58 494.74 533.3 494.74" id="ako4w52W2"></path><path d="M474.13 324.98C474.13 303.95 491.24 286.84 512.28 286.84C533.31 286.84 550.42 303.95 550.42 324.99C550.42 327.22 550.42 338.41 550.42 358.55L571.35 358.55C571.35 338.41 571.35 327.22 571.35 324.99C571.35 292.41 544.85 265.91 512.28 265.91C479.7 265.91 453.2 292.41 453.2 324.99C453.2 327.22 453.2 338.41 453.2 358.55L474.13 358.55C474.13 338.41 474.13 327.22 474.13 324.98Z" id="d164ruz3sJ"></path><path d="M512.28 389.01C500.78 389.01 491.46 398.33 491.46 409.83C491.46 417.71 495.83 424.57 502.29 428.1C502.13 429.35 501.38 435.56 500.01 446.74L524.54 446.74C523.18 435.56 522.42 429.35 522.27 428.1C528.72 424.57 533.1 417.71 533.1 409.83C533.1 398.33 523.78 389.01 512.28 389.01Z" id="n1590MqHnS"></path><path d="M507.99 496.31C507.35 494.54 507.87 492.48 509.29 491.24C510.82 489.91 513.09 489.72 514.82 490.79C516.45 491.8 517.31 493.79 516.92 495.68C516.47 497.81 514.54 499.39 512.36 499.39C510.42 499.39 508.65 498.13 507.99 496.31Z" id="a3o0DU2NOv"></path><path d="M563.63 387.15C563.63 386.3 563.63 379.53 563.63 378.68C563.63 376.11 565.72 374.03 568.28 374.03C570.85 374.03 572.94 376.11 572.94 378.68C572.94 379.53 572.94 386.3 572.94 387.15C572.94 389.72 570.85 391.8 568.28 391.8C565.72 391.8 563.63 389.72 563.63 387.15Z" id="doA0Po8Vq"></path><path d="M451.62 387.15C451.62 386.3 451.62 379.53 451.62 378.68C451.62 376.11 453.7 374.03 456.27 374.03C458.84 374.03 460.92 376.11 460.92 378.68C460.92 379.53 460.92 386.3 460.92 387.15C460.92 389.72 458.84 391.8 456.27 391.8C453.7 391.8 451.62 389.72 451.62 387.15Z" id="f1fdrKGEr2"></path><path d="M563.63 474.6C563.63 473.75 563.63 466.98 563.63 466.13C563.63 463.57 565.72 461.48 568.28 461.48C570.85 461.48 572.94 463.57 572.94 466.13C572.94 466.98 572.94 473.75 572.94 474.6C572.94 477.17 570.85 479.25 568.28 479.25C565.72 479.25 563.63 477.17 563.63 474.6Z" id="aiak3ccGK"></path><path d="M451.62 474.6C451.62 473.75 451.62 466.98 451.62 466.13C451.62 463.57 453.7 461.48 456.27 461.48C458.84 461.48 460.92 463.57 460.92 466.13C460.92 466.98 460.92 473.75 460.92 474.6C460.92 477.17 458.84 479.25 456.27 479.25C453.7 479.25 451.62 477.17 451.62 474.6Z" id="bDzcpan46"></path><path d="M491.46 468.92C488.89 468.92 486.81 466.84 486.81 464.27C486.81 461.7 488.89 459.62 491.46 459.62C495.62 459.62 528.94 459.62 533.1 459.62C535.67 459.62 537.75 461.7 537.75 464.27C537.75 466.84 535.67 468.92 533.1 468.92C524.77 468.92 495.62 468.92 491.46 468.92Z" id="b1cIGgjyI"></path><path d="M500.01 451.39C498.68 451.39 497.41 450.82 496.53 449.82C495.65 448.83 495.23 447.5 495.4 446.18C495.59 444.6 497.12 432.02 497.32 430.45C490.76 425.69 486.81 418.05 486.81 409.83C486.81 395.79 498.23 384.36 512.28 384.36C526.32 384.36 537.75 395.79 537.75 409.83C537.75 418.05 533.79 425.69 527.24 430.45C527.43 432.02 528.97 444.6 529.16 446.18C529.32 447.5 528.91 448.83 528.03 449.82C527.14 450.82 525.87 451.39 524.54 451.39C519.64 451.39 502.47 451.39 500.01 451.39ZM505.27 442.09L519.29 442.09C518.31 434.04 517.76 429.56 517.65 428.67C517.42 426.78 518.37 424.94 520.03 424.03C525.22 421.18 528.45 415.74 528.45 409.83C528.45 400.92 521.19 393.66 512.28 393.66C503.36 393.66 496.11 400.92 496.11 409.83C496.11 415.74 499.33 421.18 504.52 424.03C506.19 424.94 507.13 426.78 506.9 428.67C506.68 430.46 506.14 434.93 505.27 442.09Z" id="e1OUohwe8H"></path><path d="M576.01 353.89C576.01 336.55 576.01 326.91 576.01 324.98C576.01 289.85 547.42 261.26 512.28 261.26C477.14 261.26 448.55 289.85 448.55 324.99C448.55 326.91 448.55 336.55 448.55 353.9C446.9 353.9 445.98 353.9 445.8 353.9C438.34 353.9 432.28 359.96 432.28 367.41C432.28 379.26 432.28 474.02 432.28 485.87C432.28 493.32 438.34 499.39 445.8 499.39C450.34 499.39 486.71 499.39 491.25 499.39C493.82 499.39 495.9 497.31 495.9 494.74C495.9 492.17 493.82 490.09 491.25 490.09C486.71 490.09 450.34 490.09 445.8 490.09C443.47 490.09 441.58 488.19 441.58 485.87C441.58 474.02 441.58 379.26 441.58 367.41C441.58 365.09 443.47 363.2 445.8 363.2C459.09 363.2 565.46 363.2 578.76 363.2C581.08 363.2 582.98 365.09 582.98 367.41C582.98 379.26 582.98 474.02 582.98 485.87C582.98 488.19 581.08 490.09 578.76 490.09C574.21 490.09 537.85 490.09 533.3 490.09C530.74 490.09 528.65 492.17 528.65 494.74C528.65 497.31 530.74 499.39 533.3 499.39C537.85 499.39 574.21 499.39 578.76 499.39C586.21 499.39 592.28 493.32 592.28 485.87C592.28 474.02 592.28 379.26 592.28 367.41C592.28 359.96 586.21 353.89 578.76 353.89C578.39 353.89 577.47 353.89 576.01 353.89ZM545.77 353.89L478.78 353.89C478.78 336.55 478.78 326.91 478.78 324.98C478.78 306.52 493.81 291.49 512.28 291.49C530.75 291.49 545.77 306.52 545.77 324.99C545.77 328.84 545.77 338.48 545.77 353.89ZM555.08 324.98C555.08 301.39 535.88 282.19 512.28 282.19C488.68 282.19 469.48 301.39 469.48 324.99C469.48 326.91 469.48 336.55 469.48 353.9L457.85 353.9C457.85 336.55 457.85 326.91 457.85 324.99C457.85 294.97 482.27 270.56 512.28 270.56C542.29 270.56 566.7 294.97 566.7 324.99C566.7 326.91 566.7 336.55 566.7 353.9L555.08 353.9C555.08 336.55 555.08 326.91 555.08 324.98Z" id="c4C3SNDHsM"></path></defs><g><g><g><use xlink:href="#fbFxCw44s" opacity="1" fill="#c193dc" fill-opacity="1"></use><g><use xlink:href="#fbFxCw44s" opacity="1" fill-opacity="0" stroke="#000000" stroke-width="1" stroke-opacity="0"></use></g></g><g><use xlink:href="#c9cDdQpaM8" opacity="1" fill="#faf7f5" fill-opacity="1"></use><g><use xlink:href="#c9cDdQpaM8" opacity="1" fill-opacity="0" stroke="#000000" stroke-width="1" stroke-opacity="0"></use></g></g><g><use xlink:href="#a5chOVlxCr" opacity="1" fill="#fff7bf" fill-opacity="1"></use><g><use xlink:href="#a5chOVlxCr" opacity="1" fill-opacity="0" stroke="#000000" stroke-width="1" stroke-opacity="0"></use></g></g><g><use xlink:href="#c1yWoLRta9" opacity="1" fill="#000000" fill-opacity="1"></use><g><use xlink:href="#c1yWoLRta9" opacity="1" fill-opacity="0" stroke="#000000" stroke-width="1" stroke-opacity="0"></use></g></g><g><use xlink:href="#e1f2GYii1q" opacity="1" fill="#000000" fill-opacity="1"></use><g><use xlink:href="#e1f2GYii1q" opacity="1" fill-opacity="0" stroke="#000000" stroke-width="1" stroke-opacity="0"></use></g></g><g><use xlink:href="#ef07LfYp4" opacity="1" fill="#000000" fill-opacity="1"></use><g><use xlink:href="#ef07LfYp4" opacity="1" fill-opacity="0" stroke="#000000" stroke-width="1" stroke-opacity="0"></use></g></g><g><use xlink:href="#dl0Yh9WmO" opacity="1" fill="#000000" fill-opacity="1"></use><g><use xlink:href="#dl0Yh9WmO" opacity="1" fill-opacity="0" stroke="#000000" stroke-width="1" stroke-opacity="0"></use></g></g><g><use xlink:href="#kUBNB471i" opacity="1" fill="#000000" fill-opacity="1"></use><g><use xlink:href="#kUBNB471i" opacity="1" fill-opacity="0" stroke="#000000" stroke-width="1" stroke-opacity="0"></use></g></g><g><use xlink:href="#bp6ilrDGR" opacity="1" fill="#000000" fill-opacity="1"></use><g><use xlink:href="#bp6ilrDGR" opacity="1" fill-opacity="0" stroke="#000000" stroke-width="1" stroke-opacity="0"></use></g></g><g><use xlink:href="#d2hBX87po" opacity="1" fill="#000000" fill-opacity="1"></use><g><use xlink:href="#d2hBX87po" opacity="1" fill-opacity="0" stroke="#000000" stroke-width="1" stroke-opacity="0"></use></g></g><g><use xlink:href="#d77bh3Fgn4" opacity="1" fill="#000000" fill-opacity="1"></use><g><use xlink:href="#d77bh3Fgn4" opacity="1" fill-opacity="0" stroke="#000000" stroke-width="1" stroke-opacity="0"></use></g></g><g><use xlink:href="#cbDk7Gkhd" opacity="1" fill="url(#gradienta5lWeXEUir)"></use><g><use xlink:href="#cbDk7Gkhd" opacity="1" fill-opacity="0" stroke="#000000" stroke-width="1" stroke-opacity="0"></use></g></g><g><use xlink:href="#fCKm08oiz" opacity="1" fill="#590bb2" fill-opacity="1"></use><g><use xlink:href="#fCKm08oiz" opacity="1" fill-opacity="0" stroke="#000000" stroke-width="1" stroke-opacity="0"></use></g></g><g><use xlink:href="#c2gPO8Eeu" opacity="1" fill="#afabc6" fill-opacity="1"></use><g><use xlink:href="#c2gPO8Eeu" opacity="1" fill-opacity="0" stroke="#000000" stroke-width="1" stroke-opacity="0"></use></g></g><g><use xlink:href="#esRHwK2lM" opacity="1" fill="#8e8ca8" fill-opacity="1"></use><g><use xlink:href="#esRHwK2lM" opacity="1" fill-opacity="0" stroke="#000000" stroke-width="1" stroke-opacity="0"></use></g></g><g><use xlink:href="#cW2USvKyR" opacity="1" fill="#f5f4f9" fill-opacity="1"></use><g><use xlink:href="#cW2USvKyR" opacity="1" fill-opacity="0" stroke="#000000" stroke-width="1" stroke-opacity="0"></use></g></g><g><use xlink:href="#a2Vj3MNfLE" opacity="1" fill="#ffd5b8" fill-opacity="1"></use><g><use xlink:href="#a2Vj3MNfLE" opacity="1" fill-opacity="0" stroke="#000000" stroke-width="1" stroke-opacity="0"></use></g></g><g><use xlink:href="#b1GY1jK7ei" opacity="1" fill="#ffbe92" fill-opacity="1"></use><g><use xlink:href="#b1GY1jK7ei" opacity="1" fill-opacity="0" stroke="#000000" stroke-width="1" stroke-opacity="0"></use></g></g><g><use xlink:href="#cUajssL1P" opacity="1" fill="#ffa052" fill-opacity="1"></use><g><use xlink:href="#cUajssL1P" opacity="1" fill-opacity="0" stroke="#000000" stroke-width="1" stroke-opacity="0"></use></g></g><g><use xlink:href="#b13XtMoE48" opacity="1" fill="#c182f9" fill-opacity="1"></use><g><use xlink:href="#b13XtMoE48" opacity="1" fill-opacity="0" stroke="#000000" stroke-width="1" stroke-opacity="0"></use></g></g><g><use xlink:href="#cGQSuTO4" opacity="1" fill="#ffeadc" fill-opacity="1"></use><g><use xlink:href="#cGQSuTO4" opacity="1" fill-opacity="0" stroke="#000000" stroke-width="1" stroke-opacity="0"></use></g></g><g><use xlink:href="#bdE60rbWS" opacity="1" fill="#c182f9" fill-opacity="1"></use><g><use xlink:href="#bdE60rbWS" opacity="1" fill-opacity="0" stroke="#000000" stroke-width="1" stroke-opacity="0"></use></g></g><g><use xlink:href="#cbcaQIILT" opacity="1" fill="#cecae0" fill-opacity="1"></use><g><use xlink:href="#cbcaQIILT" opacity="1" fill-opacity="0" stroke="#000000" stroke-width="1" stroke-opacity="0"></use></g></g><g><use xlink:href="#d16YEzboIQ" opacity="1" fill="#590bb2" fill-opacity="1"></use><g><use xlink:href="#d16YEzboIQ" opacity="1" fill-opacity="0" stroke="#000000" stroke-width="1" stroke-opacity="0"></use></g></g><g><use xlink:href="#dqyKCFb98" opacity="1" fill="#590bb2" fill-opacity="1"></use><g><use xlink:href="#dqyKCFb98" opacity="1" fill-opacity="0" stroke="#000000" stroke-width="1" stroke-opacity="0"></use></g></g><g><use xlink:href="#b6mkxCgsQ" opacity="1" fill="#590bb2" fill-opacity="1"></use><g><use xlink:href="#b6mkxCgsQ" opacity="1" fill-opacity="0" stroke="#000000" stroke-width="1" stroke-opacity="0"></use></g></g><g><use xlink:href="#b3aeLlsAE" opacity="1" fill="#590bb2" fill-opacity="1"></use><g><use xlink:href="#b3aeLlsAE" opacity="1" fill-opacity="0" stroke="#000000" stroke-width="1" stroke-opacity="0"></use></g></g><g><use xlink:href="#bixHZDp2c" opacity="1" fill="#ddd9e4" fill-opacity="1"></use><g><use xlink:href="#bixHZDp2c" opacity="1" fill-opacity="0" stroke="#000000" stroke-width="1" stroke-opacity="0"></use></g></g><g><use xlink:href="#e2BhDZKXXt" opacity="1" fill="#ffbe92" fill-opacity="1"></use><g><use xlink:href="#e2BhDZKXXt" opacity="1" fill-opacity="0" stroke="#000000" stroke-width="1" stroke-opacity="0"></use></g></g><g><use xlink:href="#e5ILGhI8CP" opacity="1" fill="#ffbe92" fill-opacity="1"></use><g><use xlink:href="#e5ILGhI8CP" opacity="1" fill-opacity="0" stroke="#000000" stroke-width="1" stroke-opacity="0"></use></g></g><g><use xlink:href="#b7p8eCcmeW" opacity="1" fill="#ffbe92" fill-opacity="1"></use><g><use xlink:href="#b7p8eCcmeW" opacity="1" fill-opacity="0" stroke="#000000" stroke-width="1" stroke-opacity="0"></use></g></g><g><use xlink:href="#d1k8gS24r2" opacity="1" fill="#fdd250" fill-opacity="1"></use><g><use xlink:href="#d1k8gS24r2" opacity="1" fill-opacity="0" stroke="#000000" stroke-width="1" stroke-opacity="0"></use></g></g><g><use xlink:href="#d4tkkHcpHd" opacity="1" fill="#ffbe92" fill-opacity="1"></use><g><use xlink:href="#d4tkkHcpHd" opacity="1" fill-opacity="0" stroke="#000000" stroke-width="1" stroke-opacity="0"></use></g></g><g><use xlink:href="#b1v8ddZB5U" opacity="1" fill="#ffbe92" fill-opacity="1"></use><g><use xlink:href="#b1v8ddZB5U" opacity="1" fill-opacity="0" stroke="#000000" stroke-width="1" stroke-opacity="0"></use></g></g><g><use xlink:href="#b87lcYMijd" opacity="1" fill="#ffa052" fill-opacity="1"></use><g><use xlink:href="#b87lcYMijd" opacity="1" fill-opacity="0" stroke="#000000" stroke-width="1" stroke-opacity="0"></use></g></g><g><use xlink:href="#bpEaxtmDD" opacity="1" fill="#ffa052" fill-opacity="1"></use><g><use xlink:href="#bpEaxtmDD" opacity="1" fill-opacity="0" stroke="#000000" stroke-width="1" stroke-opacity="0"></use></g></g><g><use xlink:href="#aaRck3m3" opacity="1" fill="#ffa052" fill-opacity="1"></use><g><use xlink:href="#aaRck3m3" opacity="1" fill-opacity="0" stroke="#000000" stroke-width="1" stroke-opacity="0"></use></g></g><g><use xlink:href="#fegCM1hny" opacity="1" fill="#c182f9" fill-opacity="1"></use><g><use xlink:href="#fegCM1hny" opacity="1" fill-opacity="0" stroke="#000000" stroke-width="1" stroke-opacity="0"></use></g></g><g><use xlink:href="#c5wh1AfZTX" opacity="1" fill="#ffe783" fill-opacity="1"></use><g><use xlink:href="#c5wh1AfZTX" opacity="1" fill-opacity="0" stroke="#000000" stroke-width="1" stroke-opacity="0"></use></g></g><g><use xlink:href="#b6QuYsBdw" opacity="1" fill="#c182f9" fill-opacity="1"></use><g><use xlink:href="#b6QuYsBdw" opacity="1" fill-opacity="0" stroke="#000000" stroke-width="1" stroke-opacity="0"></use></g></g><g><use xlink:href="#b1blQjGZOs" opacity="1" fill="#c182f9" fill-opacity="1"></use><g><use xlink:href="#b1blQjGZOs" opacity="1" fill-opacity="0" stroke="#000000" stroke-width="1" stroke-opacity="0"></use></g></g><g><use xlink:href="#cQruei8rT" opacity="1" fill="#ffa052" fill-opacity="1"></use><g><use xlink:href="#cQruei8rT" opacity="1" fill-opacity="0" stroke="#000000" stroke-width="1" stroke-opacity="0"></use></g></g><g><use xlink:href="#ako4w52W2" opacity="1" fill="#c193dc" fill-opacity="1"></use><g><use xlink:href="#ako4w52W2" opacity="1" fill-opacity="0" stroke="#000000" stroke-width="1" stroke-opacity="0"></use></g></g><g><use xlink:href="#d164ruz3sJ" opacity="1" fill="#faf7f5" fill-opacity="1"></use><g><use xlink:href="#d164ruz3sJ" opacity="1" fill-opacity="0" stroke="#000000" stroke-width="1" stroke-opacity="0"></use></g></g><g><use xlink:href="#n1590MqHnS" opacity="1" fill="#fff7bf" fill-opacity="1"></use><g><use xlink:href="#n1590MqHnS" opacity="1" fill-opacity="0" stroke="#000000" stroke-width="1" stroke-opacity="0"></use></g></g><g><use xlink:href="#a3o0DU2NOv" opacity="1" fill="#000000" fill-opacity="1"></use><g><use xlink:href="#a3o0DU2NOv" opacity="1" fill-opacity="0" stroke="#000000" stroke-width="1" stroke-opacity="0"></use></g></g><g><use xlink:href="#doA0Po8Vq" opacity="1" fill="#000000" fill-opacity="1"></use><g><use xlink:href="#doA0Po8Vq" opacity="1" fill-opacity="0" stroke="#000000" stroke-width="1" stroke-opacity="0"></use></g></g><g><use xlink:href="#f1fdrKGEr2" opacity="1" fill="#000000" fill-opacity="1"></use><g><use xlink:href="#f1fdrKGEr2" opacity="1" fill-opacity="0" stroke="#000000" stroke-width="1" stroke-opacity="0"></use></g></g><g><use xlink:href="#aiak3ccGK" opacity="1" fill="#000000" fill-opacity="1"></use><g><use xlink:href="#aiak3ccGK" opacity="1" fill-opacity="0" stroke="#000000" stroke-width="1" stroke-opacity="0"></use></g></g><g><use xlink:href="#bDzcpan46" opacity="1" fill="#000000" fill-opacity="1"></use><g><use xlink:href="#bDzcpan46" opacity="1" fill-opacity="0" stroke="#000000" stroke-width="1" stroke-opacity="0"></use></g></g><g><use xlink:href="#b1cIGgjyI" opacity="1" fill="#000000" fill-opacity="1"></use><g><use xlink:href="#b1cIGgjyI" opacity="1" fill-opacity="0" stroke="#000000" stroke-width="1" stroke-opacity="0"></use></g></g><g><use xlink:href="#e1OUohwe8H" opacity="1" fill="#000000" fill-opacity="1"></use><g><use xlink:href="#e1OUohwe8H" opacity="1" fill-opacity="0" stroke="#000000" stroke-width="1" stroke-opacity="0"></use></g></g><g><use xlink:href="#c4C3SNDHsM" opacity="1" fill="#000000" fill-opacity="1"></use><g><use xlink:href="#c4C3SNDHsM" opacity="1" fill-opacity="0" stroke="#000000" stroke-width="1" stroke-opacity="0"></use></g></g></g></g></svg>