<?xml version="1.0" encoding="UTF-8"?>
<svg xmlns="http://www.w3.org/2000/svg" xmlns:xlink="http://www.w3.org/1999/xlink" width="31pt" height="30pt" viewBox="0 0 31 30" version="1.1">
<g id="surface1">
<path style=" stroke:none;fill-rule:nonzero;fill:rgb(0%,0%,0%);fill-opacity:1;" d="M 10.292969 1.03125 C 9.804688 1.238281 9.5 1.472656 9.171875 1.882812 C 8.675781 2.496094 8.371094 3.492188 8.363281 4.453125 L 8.363281 4.9375 L 6.613281 4.9375 C 5.472656 4.9375 4.765625 4.964844 4.585938 5.023438 C 4.175781 5.144531 3.722656 5.597656 3.574219 6.019531 L 3.449219 6.371094 L 2.019531 6.371094 L 2.019531 7.945312 L 29.96875 7.945312 L 29.96875 6.371094 L 28.023438 6.371094 L 27.941406 6.089844 C 27.820312 5.683594 27.488281 5.304688 27.082031 5.109375 C 26.734375 4.945312 26.679688 4.9375 24.832031 4.9375 L 22.929688 4.9375 L 22.929688 4.308594 C 22.929688 3.964844 22.878906 3.507812 22.824219 3.292969 C 22.574219 2.3125 21.953125 1.472656 21.195312 1.09375 L 20.804688 0.894531 L 15.75 0.878906 L 10.699219 0.859375 Z M 20.546875 3.035156 C 21.011719 3.285156 21.257812 3.777344 21.257812 4.472656 L 21.257812 4.9375 L 10.015625 4.9375 L 10.058594 4.410156 C 10.113281 3.65625 10.382812 3.171875 10.871094 2.984375 C 10.929688 2.960938 13.089844 2.941406 15.667969 2.941406 C 19.570312 2.933594 20.390625 2.949219 20.546875 3.035156 Z M 20.546875 3.035156 "/>
<path style=" stroke:none;fill-rule:nonzero;fill:rgb(0%,0%,0%);fill-opacity:1;" d="M 2.019531 9.144531 C 2.019531 9.304688 2.042969 9.667969 2.0625 9.96875 L 2.113281 10.519531 L 2.761719 10.519531 C 3.378906 10.519531 3.414062 10.527344 3.449219 10.675781 C 3.472656 10.769531 4.210938 14.980469 5.085938 20.039062 C 5.972656 25.097656 6.703125 29.304688 6.726562 29.390625 L 6.761719 29.554688 L 24.949219 29.554688 L 24.984375 29.390625 C 25.046875 29.105469 28.433594 10.664062 28.433594 10.589844 C 28.433594 10.546875 28.753906 10.519531 29.203125 10.519531 L 29.96875 10.519531 L 29.96875 8.875 L 2.019531 8.875 Z M 11.285156 11.164062 C 11.617188 11.335938 11.890625 11.664062 11.988281 12.007812 C 12.042969 12.195312 12.058594 14.390625 12.042969 19.121094 L 12.023438 25.964844 L 11.8125 26.269531 C 11.519531 26.695312 11.15625 26.871094 10.585938 26.871094 C 10.203125 26.871094 10.078125 26.835938 9.792969 26.65625 C 9.570312 26.515625 9.402344 26.335938 9.289062 26.128906 L 9.128906 25.8125 L 9.128906 18.972656 C 9.128906 12.472656 9.136719 12.117188 9.261719 11.84375 C 9.507812 11.300781 9.9375 11.027344 10.578125 11.019531 C 10.878906 11.019531 11.101562 11.0625 11.285156 11.164062 Z M 16.742188 11.230469 C 17.027344 11.4375 17.261719 11.765625 17.355469 12.101562 C 17.453125 12.445312 17.445312 25.5 17.347656 25.855469 C 17.1875 26.449219 16.574219 26.910156 15.925781 26.910156 C 15.257812 26.910156 14.664062 26.441406 14.503906 25.792969 C 14.398438 25.371094 14.398438 12.460938 14.503906 12.074219 C 14.585938 11.75 14.964844 11.300781 15.285156 11.136719 C 15.625 10.957031 16.421875 11.007812 16.742188 11.230469 Z M 22.238281 11.269531 C 22.398438 11.394531 22.609375 11.628906 22.699219 11.800781 L 22.859375 12.117188 L 22.859375 18.921875 C 22.859375 26.542969 22.886719 26.042969 22.351562 26.527344 C 21.652344 27.160156 20.546875 26.972656 20.09375 26.15625 L 19.933594 25.871094 L 19.953125 18.878906 L 19.96875 11.894531 L 20.183594 11.613281 C 20.546875 11.15625 20.859375 11.015625 21.445312 11.035156 C 21.871094 11.058594 21.988281 11.09375 22.238281 11.269531 Z M 22.238281 11.269531 "/>
</g>
</svg>
